<?xml version="1.0" encoding="utf-8"?>
<!-- Generator: Adobe Illustrator 21.1.0, SVG Export Plug-In . SVG Version: 6.00 Build 0)  -->
<svg version="1.1" id="Layer_1" xmlns="http://www.w3.org/2000/svg" xmlns:xlink="http://www.w3.org/1999/xlink" x="0px" y="0px"
	 width="80px" height="74.7px" viewBox="0 0 80 74.7" style="enable-background:new 0 0 80 74.7;" xml:space="preserve">
<style type="text/css">
	.st0{fill:#FF6651;}
</style>
<g>
	<g>
		<g>
			<path class="st0" d="M56.3,66.7c-0.7-0.2-1.4,0.3-1.6,1L53.4,73c-0.2,0.7,0.3,1.4,1,1.6c0.1,0,0.2,0,0.3,0c0.6,0,1.1-0.4,1.3-1
				l1.3-5.3C57.5,67.6,57,66.9,56.3,66.7z"/>
			<path class="st0" d="M40,40c0.2,0,0.3,0,0.5-0.1l14.7-6.1c0.7-0.3,1-1.1,0.7-1.7c-0.3-0.7-1.1-1-1.7-0.7L40,37.3L2.7,21.9v-0.6
				c0-0.7-0.6-1.3-1.3-1.3s-1.3,0.6-1.3,1.3v1.3c0,0.5,0.3,1,0.8,1.2l38.7,16C39.7,39.9,39.8,40,40,40z"/>
			<path class="st0" d="M55.9,53.6c-0.3-0.7-1.1-0.9-1.8-0.6c-2.5,1.3-6.8,2.7-12.7,2.9v-12c0-0.7-0.6-1.3-1.3-1.3s-1.3,0.6-1.3,1.3
				v11.9c-16.6-0.5-21.9-10.6-22.7-12.2v-9.1c0-0.7-0.6-1.3-1.3-1.3s-1.3,0.6-1.3,1.3v9.3c0,0.2,0,0.3,0.1,0.5
				c0.2,0.6,5.9,14.2,26.6,14.2c7.2,0,12.3-1.8,15.3-3.2C55.9,55.1,56.2,54.3,55.9,53.6z"/>
			<path class="st0" d="M60,68c-0.7,0-1.3,0.6-1.3,1.3v4c0,0.7,0.6,1.3,1.3,1.3s1.3-0.6,1.3-1.3v-4C61.3,68.6,60.7,68,60,68z"/>
			<path class="st0" d="M78.7,20c-0.7,0-1.3,0.6-1.3,1.3v0.4l-16,6.6v-2.4l17.8-7.4c0.5-0.2,0.8-0.7,0.8-1.2s-0.3-1-0.8-1.2
				l-38.7-16c-0.3-0.1-0.7-0.1-1,0l-38.7,16C0.3,16.3,0,16.8,0,17.3s0.3,1,0.8,1.2l38.7,16c0.2,0.1,0.3,0.1,0.5,0.1s0.3,0,0.5-0.1
				l14-5.8c0.7-0.3,1-1.1,0.7-1.7c-0.3-0.7-1.1-1-1.7-0.7L40,31.9L4.8,17.3L40,2.7l35.2,14.6l-15.3,6.3l-14.7-5.5
				c0.1-0.3,0.1-0.6,0.1-0.9c0-2.2-2.3-4-5.3-4s-5.3,1.8-5.3,4s2.3,4,5.3,4c1.3,0,2.5-0.4,3.5-1l15.2,5.7v4.4l0,0v28.6
				c-1.5,0.6-2.7,2-2.7,3.8c0,2.2,1.8,4,4,4s4-1.8,4-4c0-1.7-1.1-3.2-2.7-3.8v-7.6c3.8-2.9,5.2-6.7,5.3-6.9c0-0.1,0.1-0.3,0.1-0.4
				v-9.3c0-0.7-0.6-1.3-1.3-1.3s-1.3,0.6-1.3,1.3v9.1c-0.2,0.6-1,2.3-2.7,4V31.2l17.8-7.3c0.5-0.2,0.8-0.7,0.8-1.2v-1.4
				C80,20.6,79.4,20,78.7,20z M40,18.6c-1.6,0-2.7-0.8-2.7-1.3s1-1.3,2.7-1.3s2.7,0.8,2.7,1.3S41.6,18.6,40,18.6z M60,64
				c-0.7,0-1.3-0.6-1.3-1.3s0.6-1.3,1.3-1.3s1.3,0.6,1.3,1.3S60.7,64,60,64z"/>
			<path class="st0" d="M65.3,67.6c-0.2-0.7-0.9-1.1-1.6-1c-0.7,0.2-1.1,0.9-1,1.6l1.3,5.3c0.2,0.6,0.7,1,1.3,1c0.1,0,0.2,0,0.3,0
				c0.7-0.2,1.1-0.9,1-1.6L65.3,67.6z"/>
		</g>
	</g>
</g>
</svg>
