<?xml version="1.0" encoding="utf-8"?>
<!-- Generator: Adobe Illustrator 18.1.1, SVG Export Plug-In . SVG Version: 6.00 Build 0)  -->
<!DOCTYPE svg PUBLIC "-//W3C//DTD SVG 1.1//EN" "http://www.w3.org/Graphics/SVG/1.1/DTD/svg11.dtd">
<svg version="1.1" id="Capa_1" xmlns="http://www.w3.org/2000/svg" xmlns:xlink="http://www.w3.org/1999/xlink" x="0px" y="0px"
	 width="80px" height="77.7px" viewBox="166.5 1.2 80 77.7" enable-background="new 166.5 1.2 80 77.7" xml:space="preserve">
<path fill="#FFFFFF" d="M227.1,41.8c0.8-0.8,0.8-2.1,0-3.1c-0.8-0.8-2.1-0.8-3.1,0l-15.3,15.3V3.3c0-1.2-1-2.1-2.1-2.1
	s-2.1,1-2.1,2.1v50.8l-15.3-15.3c-0.8-0.8-2.3-0.8-3.1,0c-0.8,0.8-0.8,2.1,0,3.1L205.3,61c0.8,0.8,2.1,0.8,3.1,0L227.1,41.8z
	 M242.3,55.8c0-1.2,1-2.1,2.1-2.1s2.1,1,2.1,2.1v20.9c0,1.2-1,2.1-2.1,2.1h-75.8c-1.2,0-2.1-1-2.1-2.1V55.8c0-1.2,1-2.1,2.1-2.1
	c1.2,0,2.1,1,2.1,2.1v18.8h71.4L242.3,55.8L242.3,55.8z"/>
</svg>
