<?xml version="1.0" encoding="utf-8"?>
<!-- Generator: Adobe Illustrator 22.1.0, SVG Export Plug-In . SVG Version: 6.00 Build 0)  -->
<svg version="1.1" id="Layer_1" xmlns="http://www.w3.org/2000/svg" xmlns:xlink="http://www.w3.org/1999/xlink" x="0px" y="0px"
	 width="108.1px" height="80.1px" viewBox="152.4 -0.1 108.1 80.1" enable-background="new 152.4 -0.1 108.1 80.1"
	 xml:space="preserve">
<path id="Arrow" fill="#FFFFFF" d="M194.6,5.1c1.4-1.4,1.4-3.3,0-4.2c-0.5-0.5-1.4-0.9-2.4-0.9s-1.4,0.5-2.4,0.9l-36.7,36.7
	c-0.5,0.5-0.5,0.5-0.5,0.9c-0.5,0.9-0.5,1.4,0,2.4c0,0.5,0.5,0.9,0.5,0.9l37.2,37.2c0.9,1.4,3.3,1.4,4.2,0c1.4-0.9,1.4-3.3,0-4.2
	l0,0l-32-31.5h94.6c1.9,0,3.3-1.4,3.3-3.3s-1.4-3.3-3.3-3.3h-94.6L194.6,5.1z"/>
</svg>
