<?xml version="1.0" encoding="utf-8"?>
<!-- Generator: Adobe Illustrator 18.1.1, SVG Export Plug-In . SVG Version: 6.00 Build 0)  -->
<!DOCTYPE svg PUBLIC "-//W3C//DTD SVG 1.1//EN" "http://www.w3.org/Graphics/SVG/1.1/DTD/svg11.dtd">
<svg version="1.1" id="Capa_1" xmlns="http://www.w3.org/2000/svg" xmlns:xlink="http://www.w3.org/1999/xlink" x="0px" y="0px"
	 width="80px" height="73.8px" viewBox="166.5 3.1 80 73.8" enable-background="new 166.5 3.1 80 73.8" xml:space="preserve">
<g>
	<path fill="#FFFFFF" d="M175.4,66.2c0.5,0.7,1.1,1.3,1.8,1.8c2.9,2,5.8,2.8,8.5,2.8c3.7,0,7-1.6,9.3-3.8c3.9-3.9,5.7-10.9,1.1-17.8
		c-0.5-0.7-1.1-1.3-1.8-1.8c-6.9-4.7-13.9-2.8-17.8,1.1C172.6,52.3,170.8,59.3,175.4,66.2z M185.8,47.7c2.1,0,4.4,0.6,6.8,2.3
		c0.4,0.3,0.7,0.6,1,1h0c3.9,5.8,2.1,11.1-0.7,13.9c-2.8,2.8-8.1,4.6-13.9,0.7c-0.4-0.3-0.7-0.6-1-1c-3.9-5.8-2.1-11.1,0.7-13.9
		C180.3,49,182.8,47.7,185.8,47.7z"/>
	<path fill="#FFFFFF" d="M242.5,38.5h-23.8c0.1-0.3,0.1-0.6,0.1-0.9V7c0-2.2-1.8-4-4-4h-30.5c-2.2,0-4,1.8-4,4v30.5
		c0,0.3,0,0.6,0.1,0.9h-10c-2.2,0-4,1.8-4,4V73c0,2.2,1.8,4,4,4H201c2.2,0,4-1.8,4-4V42.4c0-0.3,0-0.6-0.1-0.9h3.3
		c-0.1,0.3-0.1,0.6-0.1,0.9V73c0,2.2,1.8,4,4,4h30.5c2.2,0,4-1.8,4-4V42.4C246.5,40.2,244.7,38.5,242.5,38.5z M183.4,37.6V7
		c0-0.5,0.4-0.9,0.9-0.9h30.5c0.5,0,0.9,0.4,0.9,0.9v30.5c0,0.5-0.4,0.9-0.9,0.9H212h-11h-16.7C183.8,38.5,183.4,38.1,183.4,37.6z
		 M201.9,42.4V73c0,0.5-0.4,0.9-0.9,0.9h-30.5c-0.5,0-0.9-0.4-0.9-0.9V42.4c0-0.5,0.4-0.9,0.9-0.9h13.8H201
		C201.5,41.5,201.9,41.9,201.9,42.4z M243.4,73c0,0.5-0.4,0.9-0.9,0.9H212c-0.5,0-0.9-0.4-0.9-0.9V42.4c0-0.5,0.4-0.9,0.9-0.9h2.8
		h27.7c0.5,0,0.9,0.4,0.9,0.9V73z"/>
	<path fill="#FFFFFF" d="M199.6,7.7l-13.7,13.8l13.7,14.6l13.7-14.6L199.6,7.7z M190.2,21.6l9.4-9.5l9.4,9.5l-9.4,10L190.2,21.6z"/>
	<path fill="#FFFFFF" d="M213.2,69.2h28.1l-14.1-27.3L213.2,69.2z M218.3,66.2l9-17.5l9,17.5H218.3z"/>
</g>
</svg>
