<?xml version="1.0" encoding="utf-8"?>
<!-- Generator: Adobe Illustrator 18.1.1, SVG Export Plug-In . SVG Version: 6.00 Build 0)  -->
<!DOCTYPE svg PUBLIC "-//W3C//DTD SVG 1.1//EN" "http://www.w3.org/Graphics/SVG/1.1/DTD/svg11.dtd">
<svg version="1.1" id="Layer_1" xmlns="http://www.w3.org/2000/svg" xmlns:xlink="http://www.w3.org/1999/xlink" x="0px" y="0px"
	 width="80px" height="69.3px" viewBox="166.5 5.3 80 69.3" enable-background="new 166.5 5.3 80 69.3" xml:space="preserve">
<g>
	<g>
		<g>
			<path fill="#FFFFFF" d="M207.8,45.3c-4.7,0-8,3.3-8,8v1.3c0,6.5,3.7,10.7,9.3,10.7c5.7,0,9.3-4.2,9.3-10.7v-1.3c0-4.7-3.3-8-8-8
				H207.8z M215.8,53.3v1.3c0,2.4-0.7,8-6.7,8c-6,0-6.7-5.6-6.7-8v-1.3c0-3.2,2.1-5.3,5.3-5.3h2.7C213.7,48,215.8,50.1,215.8,53.3z"
				/>
			<path fill="#FFFFFF" d="M206.5,53.3L206.5,53.3c-0.7,0-1.3,0.6-1.3,1.3c0,0.7,0.6,1.3,1.3,1.3c0.7,0,1.3-0.6,1.3-1.3
				C207.9,53.9,207.3,53.3,206.5,53.3z"/>
			<path fill="#FFFFFF" d="M213.1,36c0.7,0,1.4-0.5,1.4-1.2l1.3-17.3c0.3-3.2,4.6-6.8,8-6.8h2.7c3.5,0,7.8,3.6,8,6.8l1.3,17.3
				c0.1,0.7,0.6,1.2,1.3,1.2c0,0,0.1,0,0.1,0c0.7-0.1,1.3-0.7,1.2-1.4l-1.3-17.3c-0.4-4.9-6.3-9.2-10.7-9.2h-2.7
				c-4.9,0-10.2,4.6-10.7,9.2l-1.3,17.3C211.8,35.3,212.3,35.9,213.1,36z"/>
			<path fill="#FFFFFF" d="M225.1,16.9c-0.2-0.5-0.7-0.9-1.3-0.9c-0.6,0-1.1,0.4-1.3,0.9c-1,3-4,3.1-4.1,3.1c-0.7,0-1.3,0.6-1.3,1.3
				v5.3c0,4.5,3,10.7,8,10.7c5,0,8-6.2,8-10.7v-5.3c0-0.7-0.6-1.3-1.3-1.3C231.8,20,226.1,19.9,225.1,16.9z M230.5,26.7
				c0,3.6-2.4,8-5.3,8c-3,0-5.3-4.4-5.3-8v-4.2c1.3-0.3,2.9-1,4.1-2.6c1.9,1.9,4.8,2.5,6.6,2.6L230.5,26.7L230.5,26.7z"/>
			<path fill="#FFFFFF" d="M193.2,18.7h1.3c0.7,0,1.3-0.6,1.3-1.3s-0.6-1.3-1.3-1.3h-1.3c-0.7,0-1.3,0.6-1.3,1.3
				C191.8,18.1,192.4,18.7,193.2,18.7z"/>
			<path fill="#FFFFFF" d="M211.9,56c0.7,0,1.3-0.6,1.3-1.3c0-0.7-0.6-1.3-1.3-1.3h0c-0.7,0-1.3,0.6-1.3,1.3
				C210.5,55.4,211.1,56,211.9,56z"/>
			<path fill="#FFFFFF" d="M179.9,21c0.3,2.6,1.4,4.8,1.4,4.9c1.2,2.4,3,6.1,9.2,6.1s8-3.7,9.2-6.1c0.1-0.1,1.2-2.4,1.4-4.9
				c0.8-0.5,1.4-1.3,1.4-2.3V16c0-1-0.5-1.8-1.3-2.3v-0.4c0-4.4-3.6-8-8-8h-5.3c-4.4,0-8,3.6-8,8v0.4c-0.8,0.5-1.3,1.3-1.3,2.3v2.7
				C178.5,19.7,179.1,20.6,179.9,21z M181.2,16c0.7,0,1.3-0.6,1.3-1.3v-1.3c0-2.9,2.4-5.3,5.3-5.3h5.3c2.9,0,5.3,2.4,5.3,5.3v1.3
				c0,0.7,0.6,1.3,1.3,1.3v2.7c-0.7,0-1.3,0.6-1.3,1.3c0,2.3-1.2,4.7-1.2,4.7c-1.4,2.8-2.6,4.6-6.8,4.6c-4.2,0-5.4-1.8-6.8-4.6
				c0,0-1.2-2.4-1.2-4.7c0-0.7-0.6-1.3-1.3-1.3L181.2,16L181.2,16z"/>
			<path fill="#FFFFFF" d="M213.2,66.7c-0.3,0-0.5,0.1-0.7,0.2l-3.3,2.2l-3.3-2.2c-0.2-0.1-0.5-0.2-0.7-0.2c-7.7,0-9.3,3.6-9.3,6.7
				c0,0.7,0.6,1.3,1.3,1.3c0.7,0,1.3-0.6,1.3-1.3c0-1.1,0-3.9,6.3-4l3.7,2.4c0.4,0.3,1,0.3,1.5,0l3.7-2.4c6.3,0.1,6.3,2.9,6.3,4
				c0,0.7,0.6,1.3,1.3,1.3c0.7,0,1.3-0.6,1.3-1.3C222.5,70.3,220.9,66.7,213.2,66.7z"/>
			<path fill="#FFFFFF" d="M237.3,50.7L237.3,50.7c-0.7,0-1.3,0.6-1.3,1.3l-0.1,21.3c0,0.7,0.6,1.3,1.3,1.3h0c0.7,0,1.3-0.6,1.3-1.3
				l0.1-21.3C238.6,51.3,238,50.7,237.3,50.7z"/>
			<path fill="#FFFFFF" d="M186.5,18.7h1.3c0.7,0,1.3-0.6,1.3-1.3s-0.6-1.3-1.3-1.3h-1.3c-0.7,0-1.3,0.6-1.3,1.3
				C185.2,18.1,185.8,18.7,186.5,18.7z"/>
			<path fill="#FFFFFF" d="M197.1,42.9l1.1-5.6c6.7,0.2,11.6,1.8,13.1,4.6c0.4,0.6,1.2,0.9,1.8,0.5c0.6-0.4,0.9-1.2,0.5-1.8
				c-2.1-3.8-7.9-6-16.4-6c-0.7,0-1.3,0.4-1.4,1.1l-1.3,6.6c-0.1,0.7,0.3,1.4,1,1.6c0.1,0,0.2,0,0.3,0C196.5,44,197,43.6,197.1,42.9
				z"/>
			<path fill="#FFFFFF" d="M243.2,41.3c-2.6-2.6-6.5-4-11.4-4c-0.8,0-1.4,0.6-1.4,1.3c0,0.3-0.1,6.7-5.3,6.7c-5.2,0-5.3-6.4-5.3-6.7
				c0-0.7-0.6-1.3-1.3-1.3c-0.7,0-1.3,0.6-1.3,1.3c0,3,1.4,8.4,6.7,9.2v6.8c0,0.7,0.6,1.3,1.3,1.3c0.7,0,1.3-0.6,1.3-1.3v-6.8
				c4.5-0.7,6.2-4.8,6.6-7.8c3.5,0.2,6.4,1.3,8.3,3.2c1.6,1.6,2.5,3.8,2.5,6.1v21.3c0,0.7,0.6,1.3,1.3,1.3c0.7,0,1.3-0.6,1.3-1.3
				V49.3C246.5,46.3,245.3,43.4,243.2,41.3z"/>
			<path fill="#FFFFFF" d="M190.5,34.7c-1.5,0-2.7,1.2-2.7,2.7c0,1,0.5,1.8,1.3,2.3v9.7c0,0.7,0.6,1.3,1.3,1.3
				c0.7,0,1.3-0.6,1.3-1.3v-9.7c0.8-0.5,1.3-1.3,1.3-2.3C193.2,35.9,192,34.7,190.5,34.7z"/>
			<path fill="#FFFFFF" d="M175.8,50.7c-0.7,0-1.3,0.6-1.3,1.3v21.3c0,0.7,0.6,1.3,1.3,1.3c0.7,0,1.3-0.6,1.3-1.3V52
				C177.2,51.3,176.6,50.7,175.8,50.7z"/>
			<path fill="#FFFFFF" d="M185.1,35.7c-0.1-0.6-0.8-1.1-1.4-1.1c-7,0-12.4,1.5-15.1,4.2c-1.4,1.4-2.1,3.1-2.1,5.1v26.7
				c0,0.7,0.6,1.3,1.3,1.3c0.7,0,1.3-0.6,1.3-1.3V44c0-1.2,0.4-2.3,1.4-3.2c2.1-2.1,6.5-3.3,12.2-3.4l6.4,30.9
				c0.1,0.7,0.9,1.2,1.6,1c0.7-0.2,1.2-0.9,1-1.6L185.1,35.7z"/>
		</g>
	</g>
</g>
</svg>
