<?xml version="1.0" encoding="utf-8"?>
<!-- Generator: Adobe Illustrator 21.1.0, SVG Export Plug-In . SVG Version: 6.00 Build 0)  -->
<svg version="1.1" id="Capa_1" xmlns="http://www.w3.org/2000/svg" xmlns:xlink="http://www.w3.org/1999/xlink" x="0px" y="0px"
	 width="80px" height="78.3px" viewBox="0 0 80 78.3" style="enable-background:new 0 0 80 78.3;" xml:space="preserve">
<style type="text/css">
	.st0{fill:#94607E;}
</style>
<g>
	<path class="st0" d="M35.7,37H29c1.1-1.5,1.7-3.4,1.7-5.3c0-5.1-4.2-9.3-9.3-9.3s-9.3,4.2-9.3,9.3c0,1.9,0.6,3.8,1.7,5.3h-8
		c-3.1,0-5.7,2.5-5.7,5.7V54c0,0.6,0.4,1.1,0.9,1.3c0.6,0.2,1.2,0,1.5-0.5c1.2-1.9,3.3-3,5.6-3c3.7,0,6.7,3,6.7,6.7s-3,6.7-6.7,6.7
		c-2.2,0-4.3-1.1-5.6-3c-0.3-0.5-0.9-0.7-1.5-0.5S0.1,62.4,0.1,63v9.9c0,3.1,2.5,5.7,5.7,5.7h30c3.1,0,5.7-2.5,5.7-5.7v-8.4
		c0-0.5-0.3-1-0.8-1.2c-0.5-0.2-1-0.1-1.4,0.2c-1.2,1.1-2.8,1.7-4.4,1.7c-3.7,0-6.7-3-6.7-6.7s3-6.7,6.7-6.7c1.6,0,3.2,0.6,4.4,1.7
		c0.4,0.4,1,0.4,1.4,0.2c0.5-0.2,0.8-0.7,0.8-1.2v-9.7C41.3,39.6,38.8,37,35.7,37z M38.7,49.9c-1.2-0.6-2.6-0.9-4-0.9
		c-5.1,0-9.3,4.2-9.3,9.3s4.2,9.3,9.3,9.3c1.4,0,2.8-0.3,4-0.9v5.9c0,1.6-1.3,3-3,3h-30c-1.6,0-3-1.3-3-3v-6.7
		C4.2,67,6.1,67.6,8,67.6c5.1,0,9.3-4.2,9.3-9.3S13.1,49,8,49c-1.9,0-3.8,0.6-5.3,1.7v-8c0-1.6,1.3-3,3-3H17c0.6,0,1.1-0.4,1.3-0.9
		c0.2-0.6,0-1.2-0.5-1.5c-1.9-1.2-3-3.3-3-5.6c0-3.7,3-6.7,6.7-6.7s6.7,3,6.7,6.7c0,2.2-1.1,4.3-3,5.6c-0.5,0.3-0.7,0.9-0.5,1.5
		s0.7,0.9,1.3,0.9h9.9c1.6,0,3,1.3,3,3v7.2H38.7z"/>
	<path class="st0" d="M79.4,9.6c-0.6-1.2-1.7-2-2.9-2.4l-24-7c-1.3-0.4-2.6-0.2-3.7,0.4c-1.2,0.6-2,1.7-2.4,2.9L45,8.4
		c-1-1.1-2.3-1.9-3.7-2.3c-4.2-1.2-8.7,1.2-9.9,5.4c-0.6,2-0.4,4.2,0.7,6.1c1,1.9,2.7,3.2,4.8,3.8c1.5,0.4,3,0.4,4.4,0l-1.8,6
		c-0.4,1.3-0.2,2.6,0.4,3.7c0.6,1.2,1.7,2,2.9,2.4l4.9,1.4c-1.1,1-1.9,2.3-2.3,3.7c-1.2,4.2,1.2,8.7,5.4,9.9
		c0.7,0.2,1.5,0.3,2.3,0.3c1.3,0,2.6-0.3,3.8-1c1.9-1,3.2-2.7,3.8-4.8c0.4-1.5,0.4-3,0-4.4l6,1.8c1.3,0.4,2.6,0.2,3.7-0.4
		c1.2-0.6,2-1.7,2.4-2.9l2.6-9c0.2-0.6-0.1-1.2-0.5-1.5c-0.5-0.3-1.1-0.3-1.6,0.1c-1.4,1.2-3.2,1.5-4.9,1c-2.8-0.8-4.4-3.8-3.6-6.6
		c0.4-1.4,1.3-2.5,2.6-3.2c1.2-0.7,2.7-0.8,4-0.4c1.7,0.5,3.1,1.8,3.6,3.5c0.2,0.6,0.7,0.9,1.3,0.9l0,0c0.6,0,1.1-0.4,1.3-1l2.3-7.9
		C80.2,12.1,80,10.8,79.4,9.6z M77.2,12.6l-1.4,4.9c-1-1.1-2.3-1.9-3.7-2.3c-2-0.6-4.2-0.4-6.1,0.7c-1.9,1-3.2,2.7-3.8,4.8
		c-0.6,2-0.4,4.2,0.7,6.1s2.7,3.2,4.8,3.8c1.5,0.4,3,0.4,4.4,0l-1.8,6c-0.2,0.6-0.6,1.1-1.1,1.3c-0.5,0.3-1.1,0.4-1.7,0.2l-9-2.6
		c-0.6-0.2-1.2,0.1-1.5,0.6s-0.3,1.1,0.1,1.6c1.2,1.4,1.5,3.2,1,4.9c-0.4,1.4-1.3,2.5-2.6,3.2c-1.2,0.7-2.7,0.8-4,0.4
		c-2.8-0.8-4.4-3.8-3.6-6.6c0.5-1.7,1.8-3.1,3.5-3.6c0.6-0.2,0.9-0.7,0.9-1.3s-0.4-1.1-1-1.3l-7.9-2.3c-0.6-0.2-1.1-0.6-1.3-1.1
		c-0.3-0.5-0.4-1.1-0.2-1.7l2.6-9c0.2-0.6-0.1-1.2-0.6-1.5c-0.2-0.1-0.5-0.2-0.7-0.2c-0.3,0-0.6,0.1-0.9,0.3c-1.4,1.2-3.2,1.5-4.9,1
		l0,0c-1.4-0.4-2.5-1.3-3.2-2.6s-0.8-2.7-0.4-4c0.8-2.8,3.8-4.4,6.6-3.6c1.7,0.5,3.1,1.8,3.6,3.5c0.2,0.6,0.7,0.9,1.3,0.9l0,0
		c0.6,0,1.1-0.4,1.3-1l2.3-7.9c0.2-0.6,0.6-1.1,1.1-1.3c0.5-0.3,1.1-0.4,1.7-0.2l24,7c0.6,0.2,1.1,0.6,1.3,1.1
		C77.3,11.4,77.4,12.1,77.2,12.6z"/>
</g>
</svg>
