<?xml version="1.0" encoding="utf-8"?>
<!-- Generator: Adobe Illustrator 18.1.1, SVG Export Plug-In . SVG Version: 6.00 Build 0)  -->
<!DOCTYPE svg PUBLIC "-//W3C//DTD SVG 1.1//EN" "http://www.w3.org/Graphics/SVG/1.1/DTD/svg11.dtd">
<svg version="1.1" id="Capa_1" xmlns="http://www.w3.org/2000/svg" xmlns:xlink="http://www.w3.org/1999/xlink" x="0px" y="0px"
	 width="80px" height="73.4px" viewBox="166.5 3.3 80 73.4" enable-background="new 166.5 3.3 80 73.4" xml:space="preserve">
<g>
	<path fill="#FFFFFF" d="M179.8,34h17.3c0.7,0,1.3-0.6,1.3-1.3c0-0.7-0.6-1.3-1.3-1.3h-17.3c-0.7,0-1.3,0.6-1.3,1.3
		C178.5,33.4,179.1,34,179.8,34z"/>
	<path fill="#FFFFFF" d="M214.5,39.3h-34.7c-0.7,0-1.3,0.6-1.3,1.3s0.6,1.3,1.3,1.3h34.7c0.7,0,1.3-0.6,1.3-1.3
		S215.2,39.3,214.5,39.3z"/>
	<path fill="#FFFFFF" d="M214.5,47.3h-34.7c-0.7,0-1.3,0.6-1.3,1.3c0,0.7,0.6,1.3,1.3,1.3h34.7c0.7,0,1.3-0.6,1.3-1.3
		C215.8,47.9,215.2,47.3,214.5,47.3z"/>
	<path fill="#FFFFFF" d="M238.6,3.4l-45.5-0.1c-4.4,0-7.9,3.5-7.9,7.9V18l-10.8,0c-4.4,0-7.9,3.5-7.9,7.9v28.2
		c0,4.4,3.5,7.9,7.9,7.9h8.1v13.3c0,0.6,0.3,1,0.9,1.2c0.2,0.1,0.3,0.1,0.5,0.1c0.4,0,0.7-0.2,1-0.4L197.8,62l22.2-0.1
		c4.4,0,7.9-3.5,7.9-7.9v-0.2l7,7.7c0.3,0.3,0.6,0.4,1,0.4c0.2,0,0.3,0,0.5-0.1c0.5-0.2,0.9-0.7,0.9-1.2V47.4h1.4
		c4.4,0,7.9-3.5,7.9-7.9V11.3C246.5,6.9,243,3.4,238.6,3.4z M225.2,54c0,2.9-2.4,5.2-5.2,5.2l-22.8,0.1c-0.4,0-0.7,0.2-1,0.4
		l-11,12.1V60.7c0-0.7-0.6-1.3-1.3-1.3h-9.4c-2.9,0-5.2-2.4-5.2-5.2V26c0-2.9,2.4-5.2,5.2-5.2l12.1,0l0,0c0,0,0,0,0,0l33.4-0.1
		c2.9,0,5.2,2.4,5.2,5.2v24.6V54z M243.8,39.5c0,2.9-2.4,5.2-5.2,5.2h-2.8c-0.7,0-1.3,0.6-1.3,1.3v11.2l-6.7-7.3V25.9
		c0-4.4-3.5-7.9-7.9-7.9L187.8,18v-6.8c0-2.9,2.4-5.2,5.2-5.2L238.6,6c0,0,0,0,0,0c2.9,0,5.2,2.4,5.2,5.2L243.8,39.5L243.8,39.5z"/>
</g>
</svg>
