<?xml version="1.0" encoding="utf-8"?>
<!-- Generator: Adobe Illustrator 18.1.1, SVG Export Plug-In . SVG Version: 6.00 Build 0)  -->
<!DOCTYPE svg PUBLIC "-//W3C//DTD SVG 1.1//EN" "http://www.w3.org/Graphics/SVG/1.1/DTD/svg11.dtd">
<svg version="1.1" id="Layer_1" xmlns="http://www.w3.org/2000/svg" xmlns:xlink="http://www.w3.org/1999/xlink" x="0px" y="0px"
	 width="80px" height="67px" viewBox="166.5 6.5 80 67" enable-background="new 166.5 6.5 80 67" xml:space="preserve">
<g>
	<g>
		<path fill="#FFFFFF" d="M239.9,20.1h-17.1v-4.2c0-5.2-4.2-9.4-9.4-9.4h-13.7c-5.2,0-9.4,4.2-9.4,9.4v4.2h-17.1
			c-3.7,0-6.6,3-6.6,6.6v40.2c0,3.7,3,6.6,6.6,6.6h66.8c3.7,0,6.6-3,6.6-6.6V26.7C246.5,23,243.5,20.1,239.9,20.1z M193.4,15.9
			c0-3.4,2.8-6.2,6.2-6.2h13.7c3.4,0,6.2,2.8,6.2,6.2v4.2h-26.1V15.9z M243.3,66.9c0,1.9-1.5,3.4-3.4,3.4h-66.8
			c-1.9,0-3.4-1.5-3.4-3.4V26.7c0-1.9,1.5-3.4,3.4-3.4h66.8c1.9,0,3.4,1.5,3.4,3.4L243.3,66.9L243.3,66.9z"/>
	</g>
</g>
<g>
	<g>
		<path fill="#FFFFFF" d="M224.2,39.3h-9.9v-9.9c0-0.9-0.7-1.6-1.6-1.6h-12.3c-0.9,0-1.6,0.7-1.6,1.6v9.9h-9.9
			c-0.9,0-1.6,0.7-1.6,1.6v12.3c0,0.9,0.7,1.6,1.6,1.6h9.9v9.9c0,0.9,0.7,1.6,1.6,1.6h12.3c0.9,0,1.6-0.7,1.6-1.6v-9.9h9.9
			c0.9,0,1.6-0.7,1.6-1.6V40.8C225.8,40,225.1,39.3,224.2,39.3z M222.6,51.6h-9.9c-0.9,0-1.6,0.7-1.6,1.6v9.9h-9.1v-9.9
			c0-0.9-0.7-1.6-1.6-1.6h-9.9v-9.1h9.9c0.9,0,1.6-0.7,1.6-1.6v-9.9h9.1v9.9c0,0.9,0.7,1.6,1.6,1.6h9.9V51.6z"/>
	</g>
</g>
<g>
	<g>
		<path fill="#FFFFFF" d="M191.4,25.3h-11.2c-0.9,0-1.6,0.7-1.6,1.6c0,0.9,0.7,1.6,1.6,1.6h11.2c0.9,0,1.6-0.7,1.6-1.6
			C193,26.1,192.2,25.3,191.4,25.3z"/>
	</g>
</g>
<g>
	<g>
		<path fill="#FFFFFF" d="M174.6,25.3h-0.8c-0.9,0-1.6,0.7-1.6,1.6c0,0.9,0.7,1.6,1.6,1.6h0.8c0.9,0,1.6-0.7,1.6-1.6
			C176.2,26.1,175.5,25.3,174.6,25.3z"/>
	</g>
</g>
</svg>
