<?xml version="1.0" encoding="utf-8"?>
<!-- Generator: Adobe Illustrator 18.1.1, SVG Export Plug-In . SVG Version: 6.00 Build 0)  -->
<!DOCTYPE svg PUBLIC "-//W3C//DTD SVG 1.1//EN" "http://www.w3.org/Graphics/SVG/1.1/DTD/svg11.dtd">
<svg version="1.1" id="Layer_1" xmlns="http://www.w3.org/2000/svg" xmlns:xlink="http://www.w3.org/1999/xlink" x="0px" y="0px"
	 width="45px" height="58px" viewBox="-184 12 45 58" enable-background="new -184 12 45 58" xml:space="preserve">
<metadata><?xpacket begin="﻿" id="W5M0MpCehiHzreSzNTczkc9d"?>
<x:xmpmeta xmlns:x="adobe:ns:meta/" x:xmptk="Adobe XMP Core 5.6-c014 79.156821, 2014/08/29-03:07:50        ">
   <rdf:RDF xmlns:rdf="http://www.w3.org/1999/02/22-rdf-syntax-ns#">
      <rdf:Description rdf:about=""
            xmlns:xmp="http://ns.adobe.com/xap/1.0/"
            xmlns:xmpGImg="http://ns.adobe.com/xap/1.0/g/img/"
            xmlns:xmpTPg="http://ns.adobe.com/xap/1.0/t/pg/"
            xmlns:stDim="http://ns.adobe.com/xap/1.0/sType/Dimensions#"
            xmlns:xmpG="http://ns.adobe.com/xap/1.0/g/"
            xmlns:dc="http://purl.org/dc/elements/1.1/"
            xmlns:xmpMM="http://ns.adobe.com/xap/1.0/mm/"
            xmlns:stEvt="http://ns.adobe.com/xap/1.0/sType/ResourceEvent#">
         <xmp:CreatorTool>Adobe Illustrator CC 2014 (Macintosh)</xmp:CreatorTool>
         <xmp:CreateDate>2017-03-25T10:03:44-07:00</xmp:CreateDate>
         <xmp:MetadataDate>2017-03-25T10:03:44-07:00</xmp:MetadataDate>
         <xmp:ModifyDate>2017-03-25T10:03:44-07:00</xmp:ModifyDate>
         <xmp:Thumbnails>
            <rdf:Alt>
               <rdf:li rdf:parseType="Resource">
                  <xmpGImg:width>200</xmpGImg:width>
                  <xmpGImg:height>256</xmpGImg:height>
                  <xmpGImg:format>JPEG</xmpGImg:format>
                  <xmpGImg:image>/9j/4AAQSkZJRgABAgEASABIAAD/7QAsUGhvdG9zaG9wIDMuMAA4QklNA+0AAAAAABAASAAAAAEA&#xA;AQBIAAAAAQAB/+4ADkFkb2JlAGTAAAAAAf/bAIQABgQEBAUEBgUFBgkGBQYJCwgGBggLDAoKCwoK&#xA;DBAMDAwMDAwQDA4PEA8ODBMTFBQTExwbGxscHx8fHx8fHx8fHwEHBwcNDA0YEBAYGhURFRofHx8f&#xA;Hx8fHx8fHx8fHx8fHx8fHx8fHx8fHx8fHx8fHx8fHx8fHx8fHx8fHx8fHx8f/8AAEQgBAADIAwER&#xA;AAIRAQMRAf/EAaIAAAAHAQEBAQEAAAAAAAAAAAQFAwIGAQAHCAkKCwEAAgIDAQEBAQEAAAAAAAAA&#xA;AQACAwQFBgcICQoLEAACAQMDAgQCBgcDBAIGAnMBAgMRBAAFIRIxQVEGE2EicYEUMpGhBxWxQiPB&#xA;UtHhMxZi8CRygvElQzRTkqKyY3PCNUQnk6OzNhdUZHTD0uIIJoMJChgZhJRFRqS0VtNVKBry4/PE&#xA;1OT0ZXWFlaW1xdXl9WZ2hpamtsbW5vY3R1dnd4eXp7fH1+f3OEhYaHiImKi4yNjo+Ck5SVlpeYmZ&#xA;qbnJ2en5KjpKWmp6ipqqusra6voRAAICAQIDBQUEBQYECAMDbQEAAhEDBCESMUEFURNhIgZxgZEy&#xA;obHwFMHR4SNCFVJicvEzJDRDghaSUyWiY7LCB3PSNeJEgxdUkwgJChgZJjZFGidkdFU38qOzwygp&#xA;0+PzhJSktMTU5PRldYWVpbXF1eX1RlZmdoaWprbG1ub2R1dnd4eXp7fH1+f3OEhYaHiImKi4yNjo&#xA;+DlJWWl5iZmpucnZ6fkqOkpaanqKmqq6ytrq+v/aAAwDAQACEQMRAD8A9U4q7FXYq7FXYq7FXYq7&#xA;FXYq7FXYq7FXYq7FXYq7FXYq7FXYq7FXYq7FXYq7FXYq7FXYq7FXYq7FXYq7FXYq7FXYq7FXYq7F&#xA;XYq7FXYq7FXYq7FXYq7FXYq7FXYq7FXYq7FXYq7FXYq7FXYq7FXYq7FXYq7FXYq7FXYq7FXYq7FX&#xA;Yq7FXYq7FXYq7FXYq7FXYq7FXYq7FXYq7FXYq7FXYq7FXYq7FXYq7FXYq7FXYq7FXYq7FXYq7FXY&#xA;q7FXYq7FXYq7FXYq7FXYq7FXYq7FXYq7FXYq7FXYq7FXYq7FXYq7FXYq7FXYq7FXYq7FXYq7FXYq&#xA;7FXYq7FXYq7FXYq7FXYq7FXYq7FXYq7FXYq7FXYq7FXYq7FXYq7FXYq7FXYq7FXYq7FXYq7FXYq7&#xA;FXYq7FXYq7FXYq7FXYq7FXYq7FXYq7FXYq7FXYq7FXYq7FXYq7FXYq7FXYq7FXYq7FXYq7FXYq7F&#xA;XYq7FXYq7FXYq7FXYq7FXYq7FXYq7FXYq7FXYq7FXYq7FXYq7FXYq7FXYq7FXYq7FXYq7FXYq7FX&#xA;Yq7FXYq7FXYq7FXYq7FXYq7FXYq7FXYq7FXYq7FXYq7FXYq7FXYq7FXYq7FXYq7FXYq7FXYq7FXY&#xA;q7FXYq7FXYq7FXYq7FXYq7FXYq7FXYq7FXYq7FXYq7FXYq7FXYq7FXYq7FXYq7FXYq7FXYq7FXYq&#xA;7FXYq7FXYq7FXYq7FXYq7FXYq7FXYq7FXYq7FXYq7FXYq7FXYq7FXYq7FXYq7FXYq7FXYq7FXYq7&#xA;FXYq7FXYq7FXYq7FXYq7FXYq7FXYq7FXYq7FXYq7FXYq7FXYq7FXYq7FXYq7FXYq7FXYq7FXYq7F&#xA;XYq7FXYq7FXYq7FXYq7FXYq7FXYq7FXYq7FXYq7FXYq7FXYq7FXYq7FXYq7FXYq7FXYq7FXYq7FX&#xA;Yq7FXYq7FXYq7FXYq7FXYq7FXYq7FXYq7FXYq7FXYq7FXYq7FXYq7FXYq7FXYq7FXYq7FXYq7FXY&#xA;q7FXYq7FXYq7FXYq7FXYq7FXYq7FXYq7FXYq7FXYq7FXYq7FXYq7FXYq7FXYq7FXYq7FXYq7FXYq&#xA;7FXYq7FXYq7FXYq7FXYq7FXYq7FXYq7FXYq7FXYq7FXYq7FXYq7FXYq7FXYq7FXYq7FXYq7FXYq7&#xA;FXYq7FXYq7FXYq7FXYq7FXYq7FXYq7FXYq7FXYq7FXYq7FXYq7FXYq7FXYq7FXYq7FXYq7FXYq7F&#xA;XYq7FXYq7FXYq7FXYq7FXYq7FXYq7FXYq7FXYq7FXYq7FXYq7FXYq7FXYq7FXYq7FXYq7FXYq7FX&#xA;Yq7FXYq7FXYq7FXYq7FXYq7FXYq7FXYq7FXYq7FXYq7FXYq7FXYq7FXYq7FXYq7FXYq7FXYq7FXY&#xA;q7FXYq7FXYq7FXYq7FXYq7FXYq7FXYq7FXYq7FXYq7FXYq7FXYq7FXYq7FXYq7FXYq7FXYq7FXYq&#xA;7FXYq7FXYq7FXYq7FXYq7FXYq7FXYq7FXYq7FXYq7FXYq7FXYq7FXYq7FXYq7FXYq7FXYq7FXYq7&#xA;FXYq7FXYq7FXYq7FXYq7FXYq7FXYq7FXYq7FXYq7FXYq7FXYq7FXYq7FXYq7FXYq7FXYq7FXYq7F&#xA;XYq7FXYq7FXYq7FXYq7FXYq7FXYq7FXYq7FXYq7FXYq7FXYq7FXYq7FXYq7FXYq7FXYq7FXYq7FX&#xA;Yq7FXYq7FXYq7FXYq7FXYq7FXYq7FXYq7FXYq7FXYq7FXYq7FXYq7FXYq7FXYq7FXYq7FXYq7FXY&#xA;q7FXYq7FXYq7FXYq7FXYq7FXYq7FXYq7FXYq7FXYq7FXYq7FXYq7FXYq7FXYq7FXYq7FXYq7FXYq&#xA;7FXYq7FXYq7FXYq7FXYq7FXYq7FXYq7FXYq7FXYq7FXYq7FXYq7FXYq7FXYq7FXYq7FXYq7FXYq7&#xA;FXYq7FXYq7FXYq7FXYq7FXYq7FXYq7FXYq7FXYq7FXYq7FXYq7FXYq7FXYq7FXYq7FXYq7FXYq7F&#xA;XYq7FX//2Q==</xmpGImg:image>
               </rdf:li>
            </rdf:Alt>
         </xmp:Thumbnails>
         <xmpTPg:MaxPageSize rdf:parseType="Resource">
            <stDim:w>45.016979</stDim:w>
            <stDim:h>58.000000</stDim:h>
            <stDim:unit>Pixels</stDim:unit>
         </xmpTPg:MaxPageSize>
         <xmpTPg:NPages>1</xmpTPg:NPages>
         <xmpTPg:HasVisibleTransparency>False</xmpTPg:HasVisibleTransparency>
         <xmpTPg:HasVisibleOverprint>False</xmpTPg:HasVisibleOverprint>
         <xmpTPg:SwatchGroups>
            <rdf:Seq>
               <rdf:li rdf:parseType="Resource">
                  <xmpG:groupName>Default Swatch Group</xmpG:groupName>
                  <xmpG:groupType>0</xmpG:groupType>
               </rdf:li>
            </rdf:Seq>
         </xmpTPg:SwatchGroups>
         <dc:format>image/svg+xml</dc:format>
         <xmpMM:DocumentID>xmp.did:ba4cb073-683f-4336-ad73-0375eb78515d</xmpMM:DocumentID>
         <xmpMM:InstanceID>xmp.iid:ba4cb073-683f-4336-ad73-0375eb78515d</xmpMM:InstanceID>
         <xmpMM:OriginalDocumentID>xmp.did:ba4cb073-683f-4336-ad73-0375eb78515d</xmpMM:OriginalDocumentID>
         <xmpMM:History>
            <rdf:Seq>
               <rdf:li rdf:parseType="Resource">
                  <stEvt:action>saved</stEvt:action>
                  <stEvt:instanceID>xmp.iid:ba4cb073-683f-4336-ad73-0375eb78515d</stEvt:instanceID>
                  <stEvt:when>2017-03-25T10:03:44-07:00</stEvt:when>
                  <stEvt:softwareAgent>Adobe Illustrator CC 2014 (Macintosh)</stEvt:softwareAgent>
                  <stEvt:changed>/</stEvt:changed>
               </rdf:li>
            </rdf:Seq>
         </xmpMM:History>
      </rdf:Description>
   </rdf:RDF>
</x:xmpmeta>
                                                                                                    
                                                                                                    
                                                                                                    
                                                                                                    
                                                                                                    
                                                                                                    
                                                                                                    
                                                                                                    
                                                                                                    
                                                                                                    
                                                                                                    
                                                                                                    
                                                                                                    
                                                                                                    
                                                                                                    
                                                                                                    
                                                                                                    
                                                                                                    
                                                                                                    
                                                                                                    
                           
<?xpacket end="w"?>
	</metadata>
<path id="Forma_1" fill="#FFFFFF" d="M-139.6,24.2l-0.8-0.8l-10.1-10.1l-0.8-0.8c-0.4-0.4-0.8-0.5-1.3-0.6h-29
	c-1.2,0-2.5,0.9-2.5,2.9V68c0.1,1,0.9,1.7,1.8,1.9c0.1,0,0.1,0,0.2,0c0.2,0,0.3,0,0.5,0h40.1c0.2,0,0.3,0,0.5,0c0.1,0,0.1,0,0.2,0
	c1-0.2,1.7-0.9,1.8-1.9V26C-138.9,25.3-139.1,24.7-139.6,24.2z M-142.6,24h-8.4v-8.4L-142.6,24z M-181.5,68c-0.1,0-0.1,0-0.2,0
	c-0.2-0.1-0.3-0.2-0.3-0.4V53h41v14.5c0,0.2-0.1,0.3-0.3,0.4c-0.1,0-0.1,0-0.2,0H-181.5z M-182,51V14.9c0-0.2,0-0.9,0.5-0.9h28.6
	c0,0.1-0.1,0.3-0.1,0.4V26h11.6c0.1,0,0.3,0,0.4-0.1c0,0,0,0,0,0v25H-182z M-168.5,56.7c-0.3-0.3-0.7-0.5-1.1-0.6
	c-0.4-0.1-0.8-0.2-1.3-0.2h-2.9V66h1.6v-3.6h1.2c0.5,0,1-0.1,1.4-0.2c0.4-0.1,0.8-0.4,1.1-0.7c0.3-0.3,0.6-0.6,0.7-1
	c0.2-0.4,0.3-0.9,0.3-1.4c0-0.5-0.1-0.9-0.3-1.3C-167.9,57.4-168.1,57-168.5,56.7z M-169.1,60.1c-0.1,0.2-0.2,0.5-0.4,0.6
	c-0.2,0.1-0.3,0.3-0.5,0.3c-0.2,0.1-0.4,0.1-0.6,0.1h-1.5v-4h1.2c0.3,0,0.7,0.1,1,0.2c0.2,0.1,0.4,0.3,0.6,0.5
	c0.1,0.2,0.2,0.4,0.3,0.6c0,0.2,0.1,0.4,0.1,0.6C-168.9,59.4-169,59.7-169.1,60.1z M-158.5,57.4c-0.5-0.5-1-0.8-1.6-1.1
	c-0.7-0.3-1.5-0.4-2.2-0.4h-3V66h3.8c0.2,0,0.4,0,0.6,0c0.3,0,0.6-0.1,0.9-0.2c0.3-0.1,0.7-0.3,1-0.5c0.4-0.3,0.7-0.6,0.9-0.9
	c0.3-0.5,0.5-1,0.7-1.5c0.2-0.7,0.3-1.4,0.3-2.1c0-0.6-0.1-1.2-0.3-1.8C-157.8,58.4-158.1,57.8-158.5,57.4z M-159.7,63.7
	c-0.6,0.7-1.5,1.2-2.4,1.1h-1.6v-7.6h1c0.7,0,1.3,0.1,1.9,0.3c0.4,0.2,0.8,0.5,1.2,0.8c0.3,0.3,0.5,0.7,0.6,1.1
	c0.1,0.4,0.2,0.8,0.2,1.2C-158.9,61.7-159.2,62.8-159.7,63.7L-159.7,63.7z M-154.9,66h1.7v-4.5h4.2v-1.1h-4.2v-3.2h4.6v-1.2h-6.3V66
	z M-152.1,35c-1.1,0-2.3,0.1-3.4,0.4c-2-2.3-3.8-4.8-5.1-7.6c1.3-5.6,0.7-6.4,0.4-6.8c-0.3-0.5-0.7-0.9-1.3-1c-0.3,0-0.7,0.1-1,0.2
	c-0.5,0.2-1,0.7-1.1,1.2c-0.7,1.7,0.3,4.5,1.3,6.6c-1,3.7-2.2,7.3-3.8,10.8c-3.8,1.7-5.8,3.4-6,5.1c-0.1,0.9,0.4,1.8,1.1,2.2
	c0.3,0.2,0.6,0.3,1,0.3l0,0c0.9,0,1.8-0.7,2.8-2.1c0.9-1.3,1.7-2.8,2.4-4.3c2.8-1.2,5.8-2.2,8.8-2.8c1.6,1.5,3,2.3,4.2,2.3
	c0.9,0,1.7-0.4,2.2-1.2c0.5-0.6,0.7-1.4,0.4-2.2C-149.6,35.3-150.5,35-152.1,35L-152.1,35z M-170,44.6c-0.3-0.1-0.4-0.4-0.4-0.7
	c0.1-0.6,0.9-1.5,3.1-2.7C-168.9,44.2-169.8,44.6-170,44.6z M-161.8,21.7c0,0,1,1.1,0.1,3.2C-162.5,24-162.6,22.7-161.8,21.7z
	 M-163.8,37.7c1-2.5,1.9-5,2.7-7.6c1.1,2,2.4,3.8,3.8,5.5C-159.5,36.2-161.7,36.9-163.8,37.7z M-150.9,37.3
	c-0.3,0.3-0.8,0.5-1.2,0.4c-0.5,0-0.7-0.3-1.5-0.9c0.6-0.1,1.2-0.1,1.8-0.1c0.4-0.1,0.8,0,1.2,0.2C-150.8,37-150.8,37.1-150.9,37.3
	L-150.9,37.3z"/>
</svg>
