<?xml version="1.0" encoding="utf-8"?>
<!-- Generator: Adobe Illustrator 18.1.1, SVG Export Plug-In . SVG Version: 6.00 Build 0)  -->
<!DOCTYPE svg PUBLIC "-//W3C//DTD SVG 1.1//EN" "http://www.w3.org/Graphics/SVG/1.1/DTD/svg11.dtd">
<svg version="1.1" id="Layer_1" xmlns="http://www.w3.org/2000/svg" xmlns:xlink="http://www.w3.org/1999/xlink" x="0px" y="0px"
	 width="72px" height="80px" viewBox="170.5 0 72 80" enable-background="new 170.5 0 72 80" xml:space="preserve">
<g>
	<g>
		<path fill="#FFFFFF" d="M227,36.8c-0.7-0.1-1.3,0.3-1.4,1l-1.9,11.4c-0.1,0.7,0.3,1.3,1,1.4c0.1,0,0.1,0,0.2,0
			c0.6,0,1.1-0.4,1.2-1l1.9-11.4C228.2,37.5,227.7,36.9,227,36.8z"/>
	</g>
</g>
<g>
	<g>
		<path fill="#FFFFFF" d="M230.3,18.8l-8.1-2.8c-0.7-0.2-1.4,0.1-1.6,0.8c-0.2,0.7,0.1,1.4,0.8,1.6l7.1,2.4l-1.1,6.3
			c-0.1,0.7,0.3,1.3,1,1.4c0.1,0,0.1,0,0.2,0c0.6,0,1.1-0.4,1.2-1l1.3-7.3C231.3,19.6,230.9,19,230.3,18.8z"/>
	</g>
</g>
<g>
	<g>
		<path fill="#FFFFFF" d="M218.9,14.8l-5.3-1.9c-0.7-0.2-1.4,0.1-1.6,0.8c-0.2,0.7,0.1,1.4,0.8,1.6l5.3,1.9c0.1,0,0.3,0.1,0.4,0.1
			c0.5,0,1-0.3,1.2-0.8C219.9,15.8,219.6,15.1,218.9,14.8z"/>
	</g>
</g>
<g>
	<g>
		<path fill="#FFFFFF" d="M208.8,34.9c3.6-1,6.3-4.3,6.3-8.3c0-4.7-3.9-8.6-8.6-8.6c-4.7,0-8.6,3.9-8.6,8.6c0,4,2.7,7.3,6.3,8.3
			c-6.2,1.1-11,6.5-11,13.1v6.7c0,0.7,0.6,1.3,1.3,1.3h24.1c0.7,0,1.3-0.6,1.3-1.3V48C219.8,41.5,215,36,208.8,34.9z M200.4,26.6
			c0-3.4,2.7-6.1,6.1-6.1c3.4,0,6.1,2.7,6.1,6.1s-2.7,6.1-6.1,6.1C203.1,32.7,200.4,30,200.4,26.6z M217.3,53.4h-21.5V48
			c0-5.9,4.8-10.8,10.8-10.8c5.9,0,10.8,4.8,10.8,10.8L217.3,53.4L217.3,53.4z"/>
	</g>
</g>
<g>
	<g>
		<path fill="#FFFFFF" d="M236,15.4L206.9,5.4c-0.3-0.1-0.6-0.1-0.8,0L177,15.4c-0.6,0.2-0.9,0.8-0.8,1.4l6.9,40.5
			c0.1,0.3,0.2,0.6,0.5,0.8l22.1,15.5c0.2,0.2,0.5,0.2,0.7,0.2c0.3,0,0.5-0.1,0.7-0.2l22.1-15.5c0.3-0.2,0.5-0.5,0.5-0.8l6.9-40.5
			C236.9,16.2,236.6,15.6,236,15.4z M227.5,56.4l-21,14.7l-21-14.7l-6.7-39l27.7-9.6l27.7,9.6L227.5,56.4z"/>
	</g>
</g>
<g>
	<g>
		<path fill="#FFFFFF" d="M241.6,12.1l-34.7-12c-0.3-0.1-0.6-0.1-0.8,0l-34.7,12c-0.6,0.2-0.9,0.8-0.8,1.4l8,46.8
			c0.1,0.3,0.2,0.6,0.5,0.8l26.7,18.7c0.2,0.2,0.5,0.2,0.7,0.2c0.3,0,0.5-0.1,0.7-0.2l26.7-18.7c0.3-0.2,0.5-0.5,0.5-0.8l8-46.8
			C242.6,12.9,242.2,12.3,241.6,12.1z M232.1,59.3l-25.6,17.9l-25.6-17.9l-7.7-45.2l33.3-11.5l33.3,11.5L232.1,59.3z"/>
	</g>
</g>
</svg>
