<?xml version="1.0" encoding="utf-8"?>
<!-- Generator: Adobe Illustrator 18.1.1, SVG Export Plug-In . SVG Version: 6.00 Build 0)  -->
<!DOCTYPE svg PUBLIC "-//W3C//DTD SVG 1.1//EN" "http://www.w3.org/Graphics/SVG/1.1/DTD/svg11.dtd">
<svg version="1.1" id="Layer_1" xmlns="http://www.w3.org/2000/svg" xmlns:xlink="http://www.w3.org/1999/xlink" x="0px" y="0px"
	 width="73.2px" height="80px" viewBox="169.9 0 73.2 80" enable-background="new 169.9 0 73.2 80" xml:space="preserve">
<path id="Forma_1" fill="#FFFFFF" d="M243,57.9c-0.5-5.6-4.8-9.7-10-9.7c-3.3,0-6.1,2-7.9,4.4c-1.8-2.5-4.6-4.4-7.9-4.4
	c-5.3,0-9.5,4.1-10,9.7c-0.2,1.3,0,2.6,0.3,3.7c0.8,3.1,2.6,5.9,5,7.9l11.6,9.9c0.3,0.3,0.7,0.4,1,0.4c0.4,0,0.8-0.2,1.1-0.4
	l11.6-9.8c2.5-2,4.3-4.9,5-7.9C243.1,60.3,243.2,59.1,243,57.9z M240,60.9c-0.7,2.6-2.1,4.9-4.2,6.6l-10.8,9.2l-10.8-9.2
	c-2-1.7-3.5-4-4.2-6.6c-0.3-0.9-0.3-1.7-0.3-2.6v-0.2c0.3-3.6,3-7.2,7.3-7.2c3.1,0,5.5,2.5,6.6,4.9l1.3,2.8l1.3-2.8
	c1.1-2.5,3.6-4.9,6.6-4.9c4.3,0,7,3.7,7.3,7.4C240.4,59.1,240.3,60.1,240,60.9z M179.4,24.9h18c0.8,0,1.4-0.6,1.4-1.4
	c0-0.8-0.6-1.4-1.4-1.4h-0.1h-18c-0.8,0-1.4,0.6-1.4,1.4C177.9,24.2,178.5,24.9,179.4,24.9L179.4,24.9L179.4,24.9z M179.4,63.4
	c-0.8,0-1.4,0.6-1.4,1.4c0,0.8,0.6,1.4,1.4,1.4l0,0h15.2c0.8,0,1.4-0.6,1.4-1.4c0-0.8-0.6-1.4-1.4-1.4l0,0H179.4z M219.5,30.4h-40.2
	c-0.8,0-1.4,0.6-1.4,1.4c0,0.8,0.6,1.4,1.4,1.4h40.2c0.8,0,1.4-0.6,1.4-1.4C221,31,220.4,30.4,219.5,30.4
	C219.6,30.4,219.6,30.4,219.5,30.4L219.5,30.4z M204.3,48.3c0-0.8-0.6-1.4-1.4-1.4l0,0h-23.6c-0.8,0-1.4,0.6-1.4,1.4
	c0,0.8,0.6,1.4,1.4,1.4h0.1h23.6C203.7,49.6,204.3,49,204.3,48.3L204.3,48.3L204.3,48.3z M200.1,56.5c0-0.8-0.6-1.4-1.4-1.4l0,0
	h-19.4c-0.8,0-1.4,0.6-1.4,1.4c0,0.8,0.6,1.4,1.4,1.4h0.1h19.4C199.5,58,200.1,57.3,200.1,56.5L200.1,56.5L200.1,56.5z M179.4,41.4
	h19.4c0.8,0,1.4-0.6,1.4-1.4s-0.6-1.4-1.4-1.4h-19.4c-0.8,0-1.4,0.6-1.4,1.4C178,40.8,178.6,41.4,179.4,41.4L179.4,41.4z
	 M219.5,38.6h-9.7c-0.8,0-1.4,0.6-1.4,1.4c0,0.8,0.6,1.4,1.4,1.4l0,0h9.7c0.8,0,1.4-0.6,1.4-1.4C221,39.2,220.3,38.6,219.5,38.6
	L219.5,38.6L219.5,38.6z M205.6,40c0-0.3-0.2-0.7-0.4-1c-0.5-0.5-1.4-0.5-2,0c-0.5,0.5-0.6,1.4,0,2l0,0c0.3,0.3,0.6,0.4,0.9,0.4
	C205.1,41.4,205.6,40.8,205.6,40L205.6,40z M208.7,77.3h-36V11.1h9.7v2.7c0,0.8,0.6,1.4,1.4,1.4l0,0h31.8c0.8,0,1.4-0.6,1.4-1.4l0,0
	v-2.7h9.7V40c0,0.8,0.7,1.4,1.4,1.4c0.8,0,1.4-0.6,1.4-1.4V9.6c0-0.8-0.6-1.4-1.4-1.4l0,0h-11.1V5.5c0-0.8-0.6-1.4-1.4-1.4l0,0h-8.3
	V1.4c0-0.8-0.6-1.4-1.4-1.4l0,0h-12.5c-0.8,0-1.4,0.6-1.4,1.4l0,0v2.7h-8.3c-0.8,0-1.4,0.6-1.4,1.4l0,0v2.7h-11.1
	c-0.8,0.1-1.4,0.7-1.4,1.4l0,0v68.9c0,0.9,0.6,1.4,1.4,1.4l0,0h37.4c0.8,0,1.4-0.6,1.4-1.4C210,77.9,209.5,77.3,208.7,77.3z
	 M194.8,2.7h9.7v5.5h-9.7V2.7z M185.1,6.9h6.9v2.7c0,0.8,0.6,1.4,1.4,1.4l0,0h12.4c0.8,0,1.4-0.6,1.4-1.4l0,0V6.9h6.9v5.5h-28.9V6.9
	z"/>
</svg>
