<?xml version="1.0" encoding="utf-8"?>
<!-- Generator: Adobe Illustrator 18.1.1, SVG Export Plug-In . SVG Version: 6.00 Build 0)  -->
<!DOCTYPE svg PUBLIC "-//W3C//DTD SVG 1.1//EN" "http://www.w3.org/Graphics/SVG/1.1/DTD/svg11.dtd">
<svg version="1.1" id="Layer_1" xmlns="http://www.w3.org/2000/svg" xmlns:xlink="http://www.w3.org/1999/xlink" x="0px" y="0px"
	 width="80px" height="74.7px" viewBox="166.5 2.7 80 74.7" enable-background="new 166.5 2.7 80 74.7" xml:space="preserve">
<g>
	<g>
		<g>
			<path fill="#FFFFFF" d="M222.8,69.4c-0.7-0.2-1.4,0.3-1.6,1l-1.3,5.3c-0.2,0.7,0.3,1.4,1,1.6c0.1,0,0.2,0,0.3,0
				c0.6,0,1.1-0.4,1.3-1l1.3-5.3C224,70.3,223.5,69.6,222.8,69.4z"/>
			<path fill="#FFFFFF" d="M206.5,42.7c0.2,0,0.3,0,0.5-0.1l14.7-6.1c0.7-0.3,1-1.1,0.7-1.7c-0.3-0.7-1.1-1-1.7-0.7l-14.2,5.9
				l-37.3-15.4V24c0-0.7-0.6-1.3-1.3-1.3c-0.7,0-1.3,0.6-1.3,1.3v1.3c0,0.5,0.3,1,0.8,1.2l38.7,16C206.2,42.6,206.3,42.7,206.5,42.7
				z"/>
			<path fill="#FFFFFF" d="M222.4,56.3c-0.3-0.7-1.1-0.9-1.8-0.6c-2.5,1.3-6.8,2.7-12.7,2.9v-12c0-0.7-0.6-1.3-1.3-1.3
				c-0.7,0-1.3,0.6-1.3,1.3v11.9c-16.6-0.5-21.9-10.6-22.7-12.2v-9.1c0-0.7-0.6-1.3-1.3-1.3c-0.7,0-1.3,0.6-1.3,1.3v9.3
				c0,0.2,0,0.3,0.1,0.5c0.2,0.6,5.9,14.2,26.6,14.2c7.2,0,12.3-1.8,15.3-3.2C222.4,57.8,222.7,57,222.4,56.3z"/>
			<path fill="#FFFFFF" d="M226.5,70.7c-0.7,0-1.3,0.6-1.3,1.3v4c0,0.7,0.6,1.3,1.3,1.3s1.3-0.6,1.3-1.3v-4
				C227.8,71.3,227.2,70.7,226.5,70.7z"/>
			<path fill="#FFFFFF" d="M245.2,22.7c-0.7,0-1.3,0.6-1.3,1.3v0.4l-16,6.6v-2.4l17.8-7.4c0.5-0.2,0.8-0.7,0.8-1.2
				c0-0.5-0.3-1-0.8-1.2L207,2.8c-0.3-0.1-0.7-0.1-1,0l-38.7,16c-0.5,0.2-0.8,0.7-0.8,1.2c0,0.5,0.3,1,0.8,1.2l38.7,16
				c0.2,0.1,0.3,0.1,0.5,0.1c0.2,0,0.3,0,0.5-0.1l14-5.8c0.7-0.3,1-1.1,0.7-1.7c-0.3-0.7-1.1-1-1.7-0.7l-13.5,5.6L171.3,20
				l35.2-14.6L241.7,20l-15.3,6.3l-14.7-5.5c0.1-0.3,0.1-0.6,0.1-0.9c0-2.2-2.3-4-5.3-4s-5.3,1.8-5.3,4s2.3,4,5.3,4
				c1.3,0,2.5-0.4,3.5-1l15.2,5.7V33v0v28.6c-1.5,0.6-2.7,2-2.7,3.8c0,2.2,1.8,4,4,4s4-1.8,4-4c0-1.7-1.1-3.2-2.7-3.8V54
				c3.8-2.9,5.2-6.7,5.3-6.9c0-0.1,0.1-0.3,0.1-0.4v-9.3c0-0.7-0.6-1.3-1.3-1.3c-0.7,0-1.3,0.6-1.3,1.3v9.1c-0.2,0.6-1,2.3-2.7,4
				V33.9l17.8-7.3c0.5-0.2,0.8-0.7,0.8-1.2V24C246.5,23.3,245.9,22.7,245.2,22.7z M206.5,21.3c-1.6,0-2.7-0.8-2.7-1.3
				c0-0.5,1-1.3,2.7-1.3s2.7,0.8,2.7,1.3C209.2,20.5,208.1,21.3,206.5,21.3z M226.5,66.7c-0.7,0-1.3-0.6-1.3-1.3s0.6-1.3,1.3-1.3
				s1.3,0.6,1.3,1.3C227.8,66.1,227.2,66.7,226.5,66.7z"/>
			<path fill="#FFFFFF" d="M231.8,70.3c-0.2-0.7-0.9-1.1-1.6-1c-0.7,0.2-1.1,0.9-1,1.6l1.3,5.3c0.2,0.6,0.7,1,1.3,1
				c0.1,0,0.2,0,0.3,0c0.7-0.2,1.1-0.9,1-1.6L231.8,70.3z"/>
		</g>
	</g>
</g>
</svg>
