<?xml version="1.0" encoding="utf-8"?>
<!-- Generator: Adobe Illustrator 18.1.1, SVG Export Plug-In . SVG Version: 6.00 Build 0)  -->
<!DOCTYPE svg PUBLIC "-//W3C//DTD SVG 1.1//EN" "http://www.w3.org/Graphics/SVG/1.1/DTD/svg11.dtd">
<svg version="1.1" id="Layer_1" xmlns="http://www.w3.org/2000/svg" xmlns:xlink="http://www.w3.org/1999/xlink" x="0px" y="0px"
	 width="80px" height="64.1px" viewBox="166.5 7.9 80 64.1" enable-background="new 166.5 7.9 80 64.1" xml:space="preserve">
<g>
	<g>
		<path fill="#FFFFFF" d="M181.5,55.1h-6.7c-0.1,0-0.2,0-0.4,0c0.1,0,0.2,0,0.4,0L181.5,55.1c0.1,0,0.2,0,0.4,0
			C181.7,55.1,181.6,55.1,181.5,55.1z"/>
	</g>
</g>
<g>
	<g>
		<path fill="#FFFFFF" d="M242.6,60.7c0.4-0.7,0.6-1.5,0.6-2.4c0-2.7-2.2-5-5-5h-1.7v-8.1c0-0.9-0.8-1.7-1.7-1.7
			c-0.9,0-1.7,0.8-1.7,1.7v8.1h-1.7c-1.3,0-2.6,0.5-3.5,1.5c-0.9,0.9-1.5,2.2-1.5,3.5c0,0.6,0.1,1.1,0.3,1.6h-40.7
			c0.2-0.5,0.3-1,0.3-1.6c0-1.2-0.5-2.4-1.2-3.3c0.8-0.9,1.2-2,1.2-3.3c0-2.7-2.2-5-5-5h-1.7V24.4c0-3.1,2.2-5.7,5-6.3v1.5
			c0,2.7,2.2,5,5,5s5-2.2,5-5v-1.5c2.9,0.6,5.1,3.2,5.1,6.3v10.8c0,3.9,2.3,7.4,5.8,9v1.1c0,2.7,2.2,5,5,5s5-2.2,5-5v-1.7
			c2.9-1.8,4.7-5,4.7-8.4v-3.5c0-3.6,2.9-6.5,6.5-6.5c1.7,0,3.4,0.7,4.6,1.9c1.2,1.2,1.9,2.8,1.9,4.6v1.3c0,0.9,0.8,1.7,1.7,1.7
			c0.9,0,1.7-0.8,1.7-1.7v-1.3c0-2.6-1-5.1-2.9-7c-1.9-1.9-4.3-2.9-7-2.9c-5.4,0-9.8,4.4-9.8,9.8v3.5c0,1.4-0.5,2.8-1.3,3.9v-0.5
			c0-1.3-0.5-2.6-1.5-3.5c-0.9-0.9-2.2-1.5-3.5-1.5c-2.7,0-5,2.2-5,5v1.7c-1.5-1.2-2.5-3-2.5-5.1V24.4c0-5-3.7-9.1-8.5-9.7v-1.8
			c0-1.3-0.5-2.6-1.5-3.5c-0.9-0.9-2.2-1.5-3.5-1.5c-2.7,0-5,2.2-5,5v1.8c-4.7,0.7-8.4,4.8-8.4,9.7v22.5h-1.7
			c-1.3,0-2.6,0.5-3.5,1.5c-0.9,0.9-1.5,2.2-1.5,3.5c0,1.2,0.5,2.4,1.2,3.3c-0.8,0.9-1.2,2-1.2,3.3c0,0.9,0.2,1.7,0.6,2.4
			c-2.3,1.2-3.9,3.6-3.9,6.3v3.3c0,0.9,0.8,1.7,1.7,1.7h76.6c0.9,0,1.7-0.8,1.7-1.7V67C246.5,64.3,244.9,61.9,242.6,60.7z M209,38.6
			L209,38.6c0-0.9,0.7-1.6,1.6-1.6c0.4,0,0.8,0.2,1.1,0.5c0.3,0.3,0.5,0.7,0.5,1.1v6.7c0,0.9-0.7,1.6-1.6,1.6
			c-0.9,0-1.6-0.7-1.6-1.6L209,38.6L209,38.6z M188.2,12.9c0-0.9,0.7-1.6,1.6-1.6c0.4,0,0.8,0.2,1.1,0.5c0.3,0.3,0.5,0.7,0.5,1.1
			v6.7c0,0.9-0.7,1.6-1.6,1.6c-0.9,0-1.6-0.7-1.6-1.6L188.2,12.9L188.2,12.9z M230.4,57.2c0.3-0.3,0.7-0.5,1.1-0.5h6.7
			c0.9,0,1.6,0.7,1.6,1.6s-0.7,1.6-1.6,1.6h-6.7c-0.9,0-1.6-0.7-1.6-1.6C229.9,57.9,230.1,57.5,230.4,57.2z M173.6,50.7
			c0.3-0.3,0.7-0.5,1.1-0.5h6.7c0.9,0,1.6,0.7,1.6,1.6c0,0.8-0.6,1.5-1.4,1.6c-0.1,0-0.1,0-0.2,0h-6.7c-0.1,0-0.1,0-0.2,0
			c-0.8-0.1-1.4-0.8-1.4-1.6C173.1,51.4,173.3,51,173.6,50.7z M173.6,57.2c0.2-0.2,0.5-0.4,0.8-0.4c0.1,0,0.2,0,0.3,0h6.7
			c0.1,0,0.2,0,0.3,0c0.7,0.1,1.3,0.8,1.3,1.6c0,0.9-0.7,1.6-1.6,1.6h-6.7v0c-0.9,0-1.6-0.7-1.6-1.6
			C173.1,57.9,173.3,57.5,173.6,57.2z M243.1,68.7h-73.3V67c0-2.1,1.7-3.7,3.7-3.7h1.1h6.7h50.1h6.7h1.1c2.1,0,3.7,1.7,3.7,3.7V68.7
			z"/>
	</g>
</g>
<g>
	<g>
		<path fill="#FFFFFF" d="M234.9,36.7c-0.9,0-1.7,0.8-1.7,1.7v1.2c0,0.9,0.8,1.7,1.7,1.7c0.9,0,1.7-0.8,1.7-1.7v-1.2
			C236.6,37.5,235.8,36.7,234.9,36.7z"/>
	</g>
</g>
</svg>
