<?xml version="1.0" encoding="utf-8"?>
<!-- Generator: Adobe Illustrator 18.1.1, SVG Export Plug-In . SVG Version: 6.00 Build 0)  -->
<!DOCTYPE svg PUBLIC "-//W3C//DTD SVG 1.1//EN" "http://www.w3.org/Graphics/SVG/1.1/DTD/svg11.dtd">
<svg version="1.1" id="Layer_1" xmlns="http://www.w3.org/2000/svg" xmlns:xlink="http://www.w3.org/1999/xlink" x="0px" y="0px"
	 width="76.6px" height="73.6px" viewBox="168.2 3.2 76.6 73.6" enable-background="new 168.2 3.2 76.6 73.6" xml:space="preserve">
<g>
	<g>
		<path fill="#FFFFFF" d="M206.5,20c3.1,0,5.5-2.6,5.5-5.5c0-3.1-2.4-5.5-5.5-5.5c-3.1,0-5.5,2.4-5.5,5.5
			C201,17.5,203.4,20,206.5,20z M206.5,11.8c1.5,0,2.4,1.1,2.4,2.4s-1.1,2.4-2.4,2.4c-1.3,0-2.4-1-2.4-2.4
			C204.1,13,205,11.8,206.5,11.8z"/>
		<path fill="#FFFFFF" d="M184,50.9c-3.1,0-5.5,2.4-5.5,5.5c0,3.1,2.4,5.5,5.5,5.5c2.9,0,5.5-2.4,5.5-5.5
			C189.5,53.4,187.1,50.9,184,50.9z M184,58.7c-1.3,0-2.4-1.1-2.4-2.4c0-1.3,1-2.4,2.4-2.4c1.3,0,2.4,1.1,2.4,2.4
			C186.5,57.6,185.5,58.7,184,58.7z"/>
		<path fill="#FFFFFF" d="M229,45.2c-5.2,0-9.7,2.4-12.6,6.2l-8.5-7.7v-9c8-0.8,14.3-7.6,14.3-15.7c0-8.8-7-15.8-15.8-15.8
			s-15.8,7.2-15.8,15.8c0,8.3,6.4,15,14.3,15.7v8.9l-8.5,7.8c-2.9-3.7-7.4-6.1-12.5-6.1c-8.8,0-15.8,7-15.8,15.8s7.2,15.8,15.8,15.8
			s15.8-7,15.8-15.8c0-2.5-0.6-4.9-1.6-7l8.2-7.6l8.3,7.6c-1,2.1-1.6,4.5-1.6,7c0,8.8,7.2,15.8,15.8,15.8c8.8,0,15.8-7,15.8-15.8
			S237.8,45.2,229,45.2z M176.9,71.5c0.8-2.5,3-4.2,5.7-4.2h2.9c2.6,0,4.9,1.7,5.7,4.2c-2,1.4-4.5,2.2-7.1,2.2
			C181.4,73.7,178.9,72.9,176.9,71.5z M193.6,69.4c-1.5-2.9-4.6-5-8.1-5h-2.9c-3.6,0-6.7,1.9-8.1,4.9c-1.9-2.2-3.1-5.1-3.1-8.3
			c0-7,5.7-12.7,12.7-12.7c6.8,0,12.7,5.7,12.7,12.7C196.7,64.2,195.5,67.2,193.6,69.4z M206.5,31.7c-2.6,0-5.1-0.8-7.1-2.2
			c0.8-2.5,3-4.2,5.7-4.2h2.9c2.6,0,4.9,1.7,5.7,4.2C211.6,30.9,209.1,31.7,206.5,31.7z M193.8,19c0-7,5.7-12.7,12.7-12.7
			S219.2,12,219.2,19c0,3.2-1.2,6.1-3.2,8.4c-1.5-2.9-4.6-5-8.1-5H205c-3.6,0-6.7,1.9-8.1,4.9C195,25.1,193.8,22.2,193.8,19z
			 M221.9,71.5c0.8-2.5,3-4.2,5.7-4.2h2.9c2.6,0,4.9,1.7,5.7,4.2c-2,1.4-4.5,2.2-7.1,2.2C226.4,73.7,223.9,72.9,221.9,71.5z
			 M238.5,69.4c-1.5-2.9-4.6-5-8.1-5h-2.9c-3.6,0-6.7,1.9-8.1,4.9c-1.9-2.2-3.1-5.1-3.1-8.3c0-7,5.7-12.7,12.7-12.7
			c7,0,12.7,5.7,12.7,12.7C241.7,64.2,240.5,67.2,238.5,69.4z"/>
		<path fill="#FFFFFF" d="M229,50.9c-3.1,0-5.5,2.4-5.5,5.5c0,3.1,2.4,5.5,5.5,5.5s5.5-2.4,5.5-5.5C234.5,53.4,232.1,50.9,229,50.9z
			 M229,58.7c-1.3,0-2.4-1.1-2.4-2.4c0-1.3,1-2.4,2.4-2.4c1.5,0,2.4,1.1,2.4,2.4C231.4,57.6,230.5,58.7,229,58.7z"/>
	</g>
</g>
</svg>
