<?xml version="1.0" encoding="utf-8"?>
<!-- Generator: Adobe Illustrator 18.1.1, SVG Export Plug-In . SVG Version: 6.00 Build 0)  -->
<!DOCTYPE svg PUBLIC "-//W3C//DTD SVG 1.1//EN" "http://www.w3.org/Graphics/SVG/1.1/DTD/svg11.dtd">
<svg version="1.1" id="Layer_1" xmlns="http://www.w3.org/2000/svg" xmlns:xlink="http://www.w3.org/1999/xlink" x="0px" y="0px"
	 width="80px" height="80px" viewBox="166.5 0 80 80" enable-background="new 166.5 0 80 80" xml:space="preserve">
<g>
	<g>
		<g>
			<path fill="#FFFFFF" d="M195.8,49.3c0,0.7,0.6,1.3,1.3,1.3h5.3c0.7,0,1.3-0.6,1.3-1.3v-8c0-0.7-0.6-1.3-1.3-1.3h-5.3
				c-0.7,0-1.3,0.6-1.3,1.3L195.8,49.3L195.8,49.3z M198.5,42.7h2.7V48h-2.7V42.7z"/>
			<path fill="#FFFFFF" d="M197.2,34.7h5.3c0.7,0,1.3-0.6,1.3-1.3v-8c0-0.7-0.6-1.3-1.3-1.3h-5.3c-0.7,0-1.3,0.6-1.3,1.3v8
				C195.8,34.1,196.4,34.7,197.2,34.7z M198.5,26.7h2.7V32h-2.7V26.7z"/>
			<path fill="#FFFFFF" d="M187.2,25.1l19.3-11.6l19.3,11.6c0.2,0.1,0.5,0.2,0.7,0.2c0.5,0,0.9-0.2,1.1-0.6c0.4-0.6,0.2-1.5-0.5-1.8
				l-19.4-11.6V2.7h6.7v2.7h-4c-0.7,0-1.3,0.6-1.3,1.3s0.6,1.3,1.3,1.3h5.3c0.7,0,1.3-0.6,1.3-1.3V1.3c0-0.7-0.6-1.3-1.3-1.3h-9.3
				c-0.7,0-1.3,0.6-1.3,1.3v9.9l-19.4,11.6c-0.6,0.4-0.8,1.2-0.5,1.8C185.7,25.3,186.6,25.5,187.2,25.1z"/>
			<path fill="#FFFFFF" d="M181.2,50.7c0.7,0,1.3-0.6,1.3-1.3v-8c0-0.7-0.6-1.3-1.3-1.3h-5.3c-0.7,0-1.3,0.6-1.3,1.3V44
				c0,0.7,0.6,1.3,1.3,1.3s1.3-0.6,1.3-1.3v-1.3h2.7v6.7C179.8,50.1,180.4,50.7,181.2,50.7z"/>
			<path fill="#FFFFFF" d="M190.5,68V29.3c0-0.7-0.6-1.3-1.3-1.3c-0.7,0-1.3,0.6-1.3,1.3V68c0,0.7,0.6,1.3,1.3,1.3
				S190.5,68.7,190.5,68z"/>
			<path fill="#FFFFFF" d="M183.8,74.7h45.3c0.7,0,1.3-0.6,1.3-1.3c0-0.7-0.6-1.3-1.3-1.3h-12V58.7h1.3c0.7,0,1.3-0.6,1.3-1.3
				s-0.6-1.3-1.3-1.3h-24c-0.7,0-1.3,0.6-1.3,1.3s0.6,1.3,1.3,1.3h1.3V72h-12c-0.7,0-1.3,0.6-1.3,1.3
				C182.5,74.1,183.1,74.7,183.8,74.7z M207.8,66.7c0.7,0,1.3-0.6,1.3-1.3c0-0.7-0.6-1.3-1.3-1.3v-5.3h6.7V72h-6.7V66.7z
				 M198.5,58.7h6.7V64c-0.7,0-1.3,0.6-1.3,1.3c0,0.7,0.6,1.3,1.3,1.3V72h-6.7V58.7z"/>
			<path fill="#FFFFFF" d="M237.2,57.3h-5.3c-0.7,0-1.3,0.6-1.3,1.3v8c0,0.7,0.6,1.3,1.3,1.3h5.3c0.7,0,1.3-0.6,1.3-1.3v-8
				C238.5,57.9,237.9,57.3,237.2,57.3z M235.8,65.3h-2.7V60h2.7V65.3z"/>
			<path fill="#FFFFFF" d="M237.2,41.3h-5.3c-0.7,0-1.3,0.6-1.3,1.3v8c0,0.7,0.6,1.3,1.3,1.3h5.3c0.7,0,1.3-0.6,1.3-1.3v-8
				C238.5,41.9,237.9,41.3,237.2,41.3z M235.8,49.3h-2.7V44h2.7V49.3z"/>
			<path fill="#FFFFFF" d="M234.5,77.3h-56c-0.7,0-1.3,0.6-1.3,1.3c0,0.7,0.6,1.3,1.3,1.3h56c0.7,0,1.3-0.6,1.3-1.3
				C235.8,77.9,235.2,77.3,234.5,77.3z"/>
			<path fill="#FFFFFF" d="M245.2,29.3c-0.7,0-1.3,0.6-1.3,1.3V32h-14.7c-0.7,0-1.3,0.6-1.3,1.3c0,0.7,0.6,1.3,1.3,1.3h14.7v44
				c0,0.7,0.6,1.3,1.3,1.3s1.3-0.6,1.3-1.3v-48C246.5,29.9,245.9,29.3,245.2,29.3z"/>
			<path fill="#FFFFFF" d="M209.2,49.3c0,0.7,0.6,1.3,1.3,1.3h5.3c0.7,0,1.3-0.6,1.3-1.3v-8c0-0.7-0.6-1.3-1.3-1.3h-5.3
				c-0.7,0-1.3,0.6-1.3,1.3V49.3z M211.8,42.7h2.7V48h-2.7V42.7z"/>
			<path fill="#FFFFFF" d="M179.8,65.3c0-0.2-0.1-17.3-6.7-17.3c-6.6,0-6.7,17.2-6.7,17.3c0,3.2,2.3,5.9,5.3,6.5v6.8
				c0,0.7,0.6,1.3,1.3,1.3c0.7,0,1.3-0.6,1.3-1.3v-6.8C177.5,71.2,179.8,68.6,179.8,65.3z M173.2,69.3c-2.2,0-4-1.8-4-4
				c0-6.6,1.8-14.7,4-14.7s4,8,4,14.7C177.2,67.5,175.4,69.3,173.2,69.3z"/>
			<path fill="#FFFFFF" d="M225.2,68V28c0-0.7-0.6-1.3-1.3-1.3c-0.7,0-1.3,0.6-1.3,1.3v40c0,0.7,0.6,1.3,1.3,1.3
				C224.6,69.3,225.2,68.7,225.2,68z"/>
			<path fill="#FFFFFF" d="M210.5,34.7h5.3c0.7,0,1.3-0.6,1.3-1.3v-8c0-0.7-0.6-1.3-1.3-1.3h-5.3c-0.7,0-1.3,0.6-1.3,1.3v8
				C209.2,34.1,209.8,34.7,210.5,34.7z M211.8,26.7h2.7V32h-2.7V26.7z"/>
			<path fill="#FFFFFF" d="M167.8,46.7c0.7,0,1.3-0.6,1.3-1.3V34.7h14.7c0.7,0,1.3-0.6,1.3-1.3c0-0.7-0.6-1.3-1.3-1.3h-14.7v-1.3
				c0-0.7-0.6-1.3-1.3-1.3c-0.7,0-1.3,0.6-1.3,1.3v14.7C166.5,46.1,167.1,46.7,167.8,46.7z"/>
		</g>
	</g>
</g>
</svg>
