<?xml version="1.0" encoding="utf-8"?>
<!-- Generator: Adobe Illustrator 18.1.1, SVG Export Plug-In . SVG Version: 6.00 Build 0)  -->
<!DOCTYPE svg PUBLIC "-//W3C//DTD SVG 1.1//EN" "http://www.w3.org/Graphics/SVG/1.1/DTD/svg11.dtd">
<svg version="1.1" id="Layer_1" xmlns="http://www.w3.org/2000/svg" xmlns:xlink="http://www.w3.org/1999/xlink" x="0px" y="0px"
	 width="67.2px" height="80px" viewBox="172.9 0 67.2 80" enable-background="new 172.9 0 67.2 80" xml:space="preserve">
<path id="Heart_Shield_Icon" fill="#FFFFFF" d="M206.5,80c-0.2,0-0.4,0-0.6-0.1c-5.9-2.6-11.4-5.9-16.4-9.9
	c-10.9-8.8-16.6-19.2-16.6-30V10.8c0-0.5,0.3-1,0.7-1.3c0.6-0.4,14.9-9.5,32.9-9.5s32.3,9.1,32.9,9.5c0.4,0.3,0.7,0.8,0.7,1.3V40
	c0,10.9-5.7,21.2-16.6,30c-5,4-10.6,7.3-16.4,9.9C206.9,80,206.7,80,206.5,80z M176,11.7V40c0,22.3,26.3,34.9,30.5,36.8
	C210.7,75,237,62.3,237,40V11.7c-3.1-1.8-15.7-8.6-30.5-8.6C191.6,3.1,179,9.9,176,11.7z M206.4,58.5L206.4,58.5
	c-0.4,0-0.8-0.2-1.1-0.5L190,42.4c-4.4-4.8-4.4-12.3,0-17.3c4.1-4.5,11.1-4.8,15.6-0.8c0.3,0.2,0.5,0.5,0.8,0.8
	c0.1,0.1,0.1,0.1,0.2,0.2c0.1-0.1,0.1-0.1,0.2-0.2c4.1-4.5,11.1-4.8,15.6-0.7c0.3,0.2,0.5,0.5,0.7,0.7c4.4,4.8,4.4,12.3,0,17.2l0,0
	L207.5,58C207.2,58.3,206.8,58.5,206.4,58.5L206.4,58.5z M198.2,24.6c-2.3,0-4.4,1-5.9,2.7c-3.4,3.7-3.4,9.3,0,13l14.2,14.5
	l14.3-14.5c3.4-3.7,3.4-9.3,0-12.9c-3-3.3-8-3.6-11.4-0.6c-0.2,0.2-0.4,0.4-0.6,0.6c-0.4,0.3-0.8,0.8-1.1,1.3
	c-0.5,0.7-1.5,0.9-2.2,0.4c-0.2-0.1-0.3-0.2-0.4-0.4c-0.3-0.5-0.7-1-1.1-1.4C202.6,25.6,200.5,24.6,198.2,24.6L198.2,24.6z"/>
</svg>
