<?xml version="1.0" encoding="utf-8"?>
<!-- Generator: Adobe Illustrator 18.1.1, SVG Export Plug-In . SVG Version: 6.00 Build 0)  -->
<!DOCTYPE svg PUBLIC "-//W3C//DTD SVG 1.1//EN" "http://www.w3.org/Graphics/SVG/1.1/DTD/svg11.dtd">
<svg version="1.1" id="Layer_1" xmlns="http://www.w3.org/2000/svg" xmlns:xlink="http://www.w3.org/1999/xlink" x="0px" y="0px"
	 width="80px" height="64.8px" viewBox="166.5 7.6 80 64.8" enable-background="new 166.5 7.6 80 64.8" xml:space="preserve">
<g>
	<g>
		<path fill="#FFFFFF" d="M239.9,7.6h-66.8c-3.6,0-6.6,3-6.6,6.6v40.1c0,3.6,3,6.6,6.6,6.6h4.1v8.9c0,1.1,0.6,2,1.6,2.4
			c0.3,0.1,0.7,0.2,1,0.2c0.7,0,1.3-0.3,1.8-0.8l10.7-10.7h47.6c3.6,0,6.6-3,6.6-6.6V14.2C246.5,10.6,243.5,7.6,239.9,7.6z
			 M244,54.3c0,2.3-1.8,4.1-4.1,4.1h-48.1c-0.3,0-0.7,0.1-0.9,0.4l-11.1,11.1c0,0,0,0-0.1,0c-0.1,0-0.1,0-0.1-0.1V59.6
			c0-0.7-0.6-1.3-1.3-1.3h-5.3c-2.3,0-4.1-1.8-4.1-4.1V14.2c0-2.3,1.8-4.1,4.1-4.1h66.8c2.3,0,4.1,1.8,4.1,4.1L244,54.3L244,54.3z"
			/>
	</g>
</g>
<g>
	<g>
		<path fill="#FFFFFF" d="M202.4,45.9l-7.4-23.5c-0.5-1.6-2-2.7-3.7-2.7h-1.4c-1.7,0-3.2,1.1-3.7,2.7l-7.4,23.5
			c-0.2,0.7,0.2,1.4,0.8,1.6c0.7,0.2,1.4-0.2,1.6-0.8l1.8-5.8h15.3l1.8,5.8c0.2,0.5,0.7,0.9,1.2,0.9c0.1,0,0.3,0,0.4-0.1
			C202.2,47.3,202.6,46.6,202.4,45.9z M183.6,38.4l4.8-15.2c0.2-0.6,0.7-1,1.4-1h1.4c0.6,0,1.2,0.4,1.4,1l4.8,15.2H183.6z"/>
	</g>
</g>
<g>
	<g>
		<path fill="#FFFFFF" d="M210.5,31.7c-1.5,0-3,0.5-4.1,1.4V22.2c0-0.7-0.6-1.3-1.3-1.3c-0.7,0-1.3,0.6-1.3,1.3v18.7
			c0,3.6,3,6.6,6.6,6.6c4.4,0,7.9-3.6,7.9-7.9S214.9,31.7,210.5,31.7z M210.5,45c-2.3,0-4.1-1.8-4.1-4.1v-2.7c0-2.3,1.8-4.1,4.1-4.1
			c3,0,5.4,2.4,5.4,5.4C215.9,42.6,213.5,45,210.5,45z"/>
	</g>
</g>
<g>
	<g>
		<path fill="#FFFFFF" d="M234,42.6c-0.6-0.4-1.3-0.3-1.8,0.2c-1,1.4-2.6,2.2-4.3,2.2c-3,0-5.4-2.4-5.4-5.4c0-3,2.4-5.4,5.4-5.4
			c1.7,0,3.3,0.8,4.3,2.2c0.4,0.6,1.2,0.7,1.8,0.3c0.6-0.4,0.7-1.2,0.3-1.8c-1.5-2-3.8-3.2-6.3-3.2c-4.4,0-7.9,3.6-7.9,7.9
			s3.6,7.9,7.9,7.9c2.5,0,4.8-1.2,6.3-3.2C234.6,43.8,234.5,43,234,42.6z"/>
	</g>
</g>
</svg>
