<?xml version="1.0" encoding="utf-8"?>
<!-- Generator: Adobe Illustrator 21.1.0, SVG Export Plug-In . SVG Version: 6.00 Build 0)  -->
<svg version="1.1" id="Layer_1" xmlns="http://www.w3.org/2000/svg" xmlns:xlink="http://www.w3.org/1999/xlink" x="0px" y="0px"
	 width="73.2px" height="80px" viewBox="0 0 73.2 80" style="enable-background:new 0 0 73.2 80;" xml:space="preserve">
<style type="text/css">
	.st0{fill:#94607E;}
</style>
<path id="Forma_1" class="st0" d="M73.1,57.9c-0.5-5.6-4.8-9.7-10-9.7c-3.3,0-6.1,2-7.9,4.4c-1.8-2.5-4.6-4.4-7.9-4.4
	c-5.3,0-9.5,4.1-10,9.7c-0.2,1.3,0,2.6,0.3,3.7c0.8,3.1,2.6,5.9,5,7.9l11.6,9.9c0.3,0.3,0.7,0.4,1,0.4c0.4,0,0.8-0.2,1.1-0.4
	l11.6-9.8c2.5-2,4.3-4.9,5-7.9C73.2,60.3,73.3,59.1,73.1,57.9z M70.1,60.9c-0.7,2.6-2.1,4.9-4.2,6.6l-10.8,9.2l-10.8-9.2
	c-2-1.7-3.5-4-4.2-6.6c-0.3-0.9-0.3-1.7-0.3-2.6v-0.2c0.3-3.6,3-7.2,7.3-7.2c3.1,0,5.5,2.5,6.6,4.9l1.3,2.8l1.3-2.8
	c1.1-2.5,3.6-4.9,6.6-4.9c4.3,0,7,3.7,7.3,7.4C70.5,59.1,70.4,60.1,70.1,60.9z M9.5,24.9h18c0.8,0,1.4-0.6,1.4-1.4s-0.6-1.4-1.4-1.4
	h-0.1h-18c-0.8,0-1.4,0.6-1.4,1.4C8,24.2,8.6,24.9,9.5,24.9L9.5,24.9L9.5,24.9z M9.5,63.4c-0.8,0-1.4,0.6-1.4,1.4s0.6,1.4,1.4,1.4
	l0,0h15.2c0.8,0,1.4-0.6,1.4-1.4s-0.6-1.4-1.4-1.4l0,0H9.5z M49.6,30.4H9.4C8.6,30.4,8,31,8,31.8s0.6,1.4,1.4,1.4h40.2
	c0.8,0,1.4-0.6,1.4-1.4C51.1,31,50.5,30.4,49.6,30.4C49.7,30.4,49.7,30.4,49.6,30.4L49.6,30.4z M34.4,48.3c0-0.8-0.6-1.4-1.4-1.4
	l0,0H9.4c-0.8,0-1.4,0.6-1.4,1.4c0,0.8,0.6,1.4,1.4,1.4h0.1h23.6C33.8,49.6,34.4,49,34.4,48.3L34.4,48.3L34.4,48.3z M30.2,56.5
	c0-0.8-0.6-1.4-1.4-1.4l0,0H9.4c-0.8,0-1.4,0.6-1.4,1.4c0,0.8,0.6,1.4,1.4,1.4h0.1h19.4C29.6,58,30.2,57.3,30.2,56.5L30.2,56.5
	L30.2,56.5z M9.5,41.4h19.4c0.8,0,1.4-0.6,1.4-1.4s-0.6-1.4-1.4-1.4H9.5c-0.8,0-1.4,0.6-1.4,1.4C8.1,40.8,8.7,41.4,9.5,41.4
	L9.5,41.4z M49.6,38.6h-9.7c-0.8,0-1.4,0.6-1.4,1.4c0,0.8,0.6,1.4,1.4,1.4l0,0h9.7c0.8,0,1.4-0.6,1.4-1.4
	C51.1,39.2,50.4,38.6,49.6,38.6L49.6,38.6L49.6,38.6z M35.7,40c0-0.3-0.2-0.7-0.4-1c-0.5-0.5-1.4-0.5-2,0c-0.5,0.5-0.6,1.4,0,2l0,0
	c0.3,0.3,0.6,0.4,0.9,0.4C35.2,41.4,35.7,40.8,35.7,40L35.7,40z M38.8,77.3h-36V11.1h9.7v2.7c0,0.8,0.6,1.4,1.4,1.4l0,0h31.8
	c0.8,0,1.4-0.6,1.4-1.4l0,0v-2.7h9.7V40c0,0.8,0.7,1.4,1.4,1.4c0.8,0,1.4-0.6,1.4-1.4V9.6c0-0.8-0.6-1.4-1.4-1.4l0,0H47.1V5.5
	c0-0.8-0.6-1.4-1.4-1.4l0,0h-8.3V1.4C37.4,0.6,36.8,0,36,0l0,0H23.5c-0.8,0-1.4,0.6-1.4,1.4l0,0v2.7h-8.3c-0.8,0-1.4,0.6-1.4,1.4
	l0,0v2.7H1.3C0.5,8.3-0.1,8.9-0.1,9.6l0,0v68.9c0,0.9,0.6,1.4,1.4,1.4l0,0h37.4c0.8,0,1.4-0.6,1.4-1.4
	C40.1,77.9,39.6,77.3,38.8,77.3z M24.9,2.7h9.7v5.5h-9.7V2.7z M15.2,6.9h6.9v2.7c0,0.8,0.6,1.4,1.4,1.4l0,0h12.4
	c0.8,0,1.4-0.6,1.4-1.4l0,0V6.9h6.9v5.5H15.3L15.2,6.9L15.2,6.9z"/>
</svg>
