<?xml version="1.0" encoding="utf-8"?>
<!-- Generator: Adobe Illustrator 21.1.0, SVG Export Plug-In . SVG Version: 6.00 Build 0)  -->
<svg version="1.1" id="Capa_1" xmlns="http://www.w3.org/2000/svg" xmlns:xlink="http://www.w3.org/1999/xlink" x="0px" y="0px"
	 width="80px" height="77.7px" viewBox="0 0 80 77.7" style="enable-background:new 0 0 80 77.7;" xml:space="preserve">
<style type="text/css">
	.st0{fill:#94607E;}
</style>
<path class="st0" d="M60.6,40.6c0.8-0.8,0.8-2.1,0-3.1c-0.8-0.8-2.1-0.8-3.1,0L42.2,52.8V2.1c0-1.2-1-2.1-2.1-2.1S38,1,38,2.1v50.8
	L22.7,37.6c-0.8-0.8-2.3-0.8-3.1,0s-0.8,2.1,0,3.1l19.2,19.1c0.8,0.8,2.1,0.8,3.1,0L60.6,40.6z M75.8,54.6c0-1.2,1-2.1,2.1-2.1
	s2.1,1,2.1,2.1v20.9c0,1.2-1,2.1-2.1,2.1H2.1c-1.2,0-2.1-1-2.1-2.1V54.6c0-1.2,1-2.1,2.1-2.1c1.2,0,2.1,1,2.1,2.1v18.8h71.4
	L75.8,54.6L75.8,54.6z"/>
</svg>
