<?xml version="1.0" encoding="utf-8"?>
<!-- Generator: Adobe Illustrator 21.1.0, SVG Export Plug-In . SVG Version: 6.00 Build 0)  -->
<svg version="1.1" id="Layer_1" xmlns="http://www.w3.org/2000/svg" xmlns:xlink="http://www.w3.org/1999/xlink" x="0px" y="0px"
	 width="83px" height="80px" viewBox="0 0 83 80" style="enable-background:new 0 0 83 80;" xml:space="preserve">
<style type="text/css">
	.st0{fill:#94607E;}
</style>
<path id="Icon" class="st0" d="M83,43.3l-1.5-21.5c-0.1-1.4-0.8-2.7-1.8-3.6c-2.2-1.9-5.5-1.7-7.4,0.6c-0.8,1-1.3,2.2-1.3,3.5
	l0.1,17.5l-7.7,9.8c-1.2,1.5-3.2,2.2-5.1,1.7l8.3-10.8c1.6-2.1,1.1-4.9-0.9-6.5c-2-1.5-4.7-1.2-6.3,0.7L47,49.8
	c-2.1,2.5-3.2,5.6-3.2,8.9l0.2,20c0,0.8,0.7,1.5,1.5,1.5h20.9l0,0c0.4,0,0.8-0.2,1.1-0.5s0.4-0.7,0.4-1.1L67,68.8l13.9-18.4
	C82.4,48.3,83.2,45.7,83,43.3z M78.5,48.5L64.3,67.3c-0.2,0.3-0.3,0.7-0.3,1l0.8,8.8H46.9l-0.2-18.6c0-2.6,0.9-5,2.5-7l12.5-14.9
	c0.3-0.4,0.7-0.6,1.2-0.6s0.9,0.1,1.3,0.4c0.7,0.6,0.8,1.6,0.2,2.3l-9.5,12.2c-0.5,0.6-0.4,1.6,0.3,2c0,0,0.1,0,0.1,0.1
	c3.5,2.3,8,1.5,10.5-1.7l8-10.2c0.2-0.3,0.3-0.6,0.3-0.9l-0.2-18.1c0-1.3,1.1-2.4,2.4-2.4c0.6,0,1.1,0.2,1.5,0.6
	c0.5,0.4,0.8,1,0.8,1.6l1.5,21.5C80.2,45.2,79.6,47.1,78.5,48.5L78.5,48.5z M23.5,34.7c-1.7-2-4.5-2.3-6.5-0.6
	c-1.9,1.6-2.3,4.4-0.7,6.4l8.3,10.8c-1.9,0.5-3.9-0.2-5.1-1.7l-7.6-9.9l0.2-17.6c0-2.9-2.4-5.2-5.2-5.2c-1.3,0-2.5,0.5-3.5,1.3
	c-1.1,0.9-1.7,2.2-1.8,3.6L0,43.3c-0.2,2.5,0.6,5,2.1,7L16,68.6l-0.9,9.8c-0.1,0.8,0.5,1.5,1.4,1.6h0.1l0,0h20.9
	c0.8,0,1.5-0.6,1.5-1.5l0.2-20c0-3.3-1.1-6.4-3.2-8.9L23.5,34.7z M36.2,77H18.3l0.8-8.8c0-0.4-0.1-0.7-0.3-1L4.6,48.4
	c-1.2-1.4-1.7-3.3-1.6-5l1.5-21.5c0-0.6,0.3-1.2,0.8-1.6c0.4-0.4,1-0.6,1.5-0.6c0.1,0,0.2,0,0.2,0c1.2,0.1,2.2,1.1,2.2,2.4L9,40.2
	c0,0.3,0.1,0.7,0.3,0.9l8,10.2c2.6,3.2,7.1,4,10.5,1.7c0.7-0.4,0.9-1.3,0.4-2c0,0,0-0.1-0.1-0.1l-9.5-12.1c-0.5-0.7-0.5-1.7,0.2-2.3
	c0.3-0.3,0.8-0.5,1.3-0.4c0.5,0,0.9,0.2,1.2,0.6l12.5,15c1.7,2,2.5,4.4,2.5,7L36.2,77L36.2,77z M63.2,12.6c0-3.4-1.3-6.6-3.7-9
	C54.8-1.2,47-1.3,42,3.4c-0.1,0.1-0.1,0.1-0.2,0.2l-0.4,0.5L41,3.7c-4.7-4.8-12.5-4.9-17.5-0.2c-0.1,0.1-0.1,0.1-0.2,0.2
	c-4.8,4.9-4.8,12.9,0,17.9l17.3,17.6c0.4,0.4,1.1,0.5,1.6,0l0,0l17.3-17.6C61.9,19.3,63.2,16,63.2,12.6L63.2,12.6z M41.5,36.7L25,20
	c-4-4-4-10.7,0-14.7s10.4-4,14.3-0.2c0.1,0.1,0.1,0.1,0.2,0.2l1.2,1.2c0.4,0.4,1.1,0.4,1.6,0l0,0l1.2-1.1c4-4,10.4-4,14.3-0.2
	c0.1,0.1,0.1,0.1,0.2,0.2c4,4,4,10.7,0,14.7L41.5,36.7z"/>
</svg>
