<?xml version="1.0" encoding="utf-8"?>
<!-- Generator: Adobe Illustrator 21.1.0, SVG Export Plug-In . SVG Version: 6.00 Build 0)  -->
<svg version="1.1" id="Layer_1" xmlns="http://www.w3.org/2000/svg" xmlns:xlink="http://www.w3.org/1999/xlink" x="0px" y="0px"
	 width="108.1px" height="80.1px" viewBox="0 0 108.1 80.1" style="enable-background:new 0 0 108.1 80.1;" xml:space="preserve">
<style type="text/css">
	.st0{fill:#94607E;}
</style>
<path id="Arrow" class="st0" d="M65.9,74.9c-1.4,1.4-1.4,3.3,0,4.2c0.5,0.5,1.4,0.9,2.4,0.9c0.9,0,1.4-0.5,2.4-0.9l36.7-36.7
	c0.5-0.5,0.5-0.5,0.5-0.9c0.5-0.9,0.5-1.4,0-2.4c0-0.5-0.5-0.9-0.5-0.9L70.1,1c-0.9-1.4-3.3-1.4-4.2,0c-1.4,0.9-1.4,3.3,0,4.2l0,0
	l32,31.5H3.3C1.4,36.7,0,38.1,0,40c0,1.9,1.4,3.3,3.3,3.3h94.6L65.9,74.9z"/>
</svg>
