<?xml version="1.0" encoding="utf-8"?>
<!-- Generator: Adobe Illustrator 21.1.0, SVG Export Plug-In . SVG Version: 6.00 Build 0)  -->
<svg version="1.1" id="Layer_1" xmlns="http://www.w3.org/2000/svg" xmlns:xlink="http://www.w3.org/1999/xlink" x="0px" y="0px"
	 width="72px" height="80px" viewBox="0 0 72 80" style="enable-background:new 0 0 72 80;" xml:space="preserve">
<style type="text/css">
	.st0{fill:#94607E;}
</style>
<g>
	<g>
		<path class="st0" d="M56.5,36.8c-0.7-0.1-1.3,0.3-1.4,1l-1.9,11.4c-0.1,0.7,0.3,1.3,1,1.4c0.1,0,0.1,0,0.2,0c0.6,0,1.1-0.4,1.2-1
			l1.9-11.4C57.7,37.5,57.2,36.9,56.5,36.8z"/>
	</g>
</g>
<g>
	<g>
		<path class="st0" d="M59.8,18.8L51.7,16c-0.7-0.2-1.4,0.1-1.6,0.8c-0.2,0.7,0.1,1.4,0.8,1.6l7.1,2.4l-1.1,6.3
			c-0.1,0.7,0.3,1.3,1,1.4c0.1,0,0.1,0,0.2,0c0.6,0,1.1-0.4,1.2-1l1.3-7.3C60.8,19.6,60.4,19,59.8,18.8z"/>
	</g>
</g>
<g>
	<g>
		<path class="st0" d="M48.4,14.8l-5.3-1.9c-0.7-0.2-1.4,0.1-1.6,0.8c-0.2,0.7,0.1,1.4,0.8,1.6l5.3,1.9c0.1,0,0.3,0.1,0.4,0.1
			c0.5,0,1-0.3,1.2-0.8C49.4,15.8,49.1,15.1,48.4,14.8z"/>
	</g>
</g>
<g>
	<g>
		<path class="st0" d="M38.3,34.9c3.6-1,6.3-4.3,6.3-8.3c0-4.7-3.9-8.6-8.6-8.6c-4.7,0-8.6,3.9-8.6,8.6c0,4,2.7,7.3,6.3,8.3
			c-6.2,1.1-11,6.5-11,13.1v6.7c0,0.7,0.6,1.3,1.3,1.3h24.1c0.7,0,1.3-0.6,1.3-1.3V48C49.3,41.5,44.5,36,38.3,34.9z M29.9,26.6
			c0-3.4,2.7-6.1,6.1-6.1c3.4,0,6.1,2.7,6.1,6.1s-2.7,6.1-6.1,6.1C32.6,32.7,29.9,30,29.9,26.6z M46.8,53.4H25.3V48
			c0-5.9,4.8-10.8,10.8-10.8C42,37.2,46.9,42,46.9,48L46.8,53.4L46.8,53.4z"/>
	</g>
</g>
<g>
	<g>
		<path class="st0" d="M65.5,15.4l-29.1-10c-0.3-0.1-0.6-0.1-0.8,0l-29.1,10c-0.6,0.2-0.9,0.8-0.8,1.4l6.9,40.5
			c0.1,0.3,0.2,0.6,0.5,0.8l22.1,15.5c0.2,0.2,0.5,0.2,0.7,0.2c0.3,0,0.5-0.1,0.7-0.2l22.1-15.5c0.3-0.2,0.5-0.5,0.5-0.8l6.9-40.5
			C66.4,16.2,66.1,15.6,65.5,15.4z M57,56.4L36,71.1L15,56.4l-6.7-39L36,7.8l27.7,9.6L57,56.4z"/>
	</g>
</g>
<g>
	<g>
		<path class="st0" d="M71.1,12.1l-34.7-12c-0.3-0.1-0.6-0.1-0.8,0l-34.7,12c-0.6,0.2-0.9,0.8-0.8,1.4l8,46.8
			c0.1,0.3,0.2,0.6,0.5,0.8l26.7,18.7C35.5,80,35.8,80,36,80c0.3,0,0.5-0.1,0.7-0.2l26.7-18.7c0.3-0.2,0.5-0.5,0.5-0.8l8-46.8
			C72.1,12.9,71.7,12.3,71.1,12.1z M61.6,59.3L36,77.2L10.4,59.3L2.7,14.1L36,2.6l33.3,11.5L61.6,59.3z"/>
	</g>
</g>
</svg>
