<?xml version="1.0" encoding="utf-8"?>
<!-- Generator: Adobe Illustrator 21.1.0, SVG Export Plug-In . SVG Version: 6.00 Build 0)  -->
<svg version="1.1" id="Capa_1" xmlns="http://www.w3.org/2000/svg" xmlns:xlink="http://www.w3.org/1999/xlink" x="0px" y="0px"
	 width="80px" height="73.4px" viewBox="0 0 80 73.4" style="enable-background:new 0 0 80 73.4;" xml:space="preserve">
<g>
	<path fill="#94607E" d="M13.3,30.7h17.3c0.7,0,1.3-0.6,1.3-1.3s-0.6-1.3-1.3-1.3H13.3c-0.7,0-1.3,0.6-1.3,1.3S12.6,30.7,13.3,30.7z"/>
	<path fill="#94607E" d="M48,36H13.3c-0.7,0-1.3,0.6-1.3,1.3s0.6,1.3,1.3,1.3H48c0.7,0,1.3-0.6,1.3-1.3S48.7,36,48,36z"/>
	<path fill="#94607E" d="M48,44H13.3c-0.7,0-1.3,0.6-1.3,1.3s0.6,1.3,1.3,1.3H48c0.7,0,1.3-0.6,1.3-1.3C49.3,44.6,48.7,44,48,44z"/>
	<path fill="#94607E" d="M72.1,0.1L26.6,0c-4.4,0-7.9,3.5-7.9,7.9v6.8H7.9c-4.4,0-7.9,3.5-7.9,7.9v28.2c0,4.4,3.5,7.9,7.9,7.9H16V72
		c0,0.6,0.3,1,0.9,1.2c0.2,0.1,0.3,0.1,0.5,0.1c0.4,0,0.7-0.2,1-0.4l12.9-14.2l22.2-0.1c4.4,0,7.9-3.5,7.9-7.9v-0.2l7,7.7
		c0.3,0.3,0.6,0.4,1,0.4c0.2,0,0.3,0,0.5-0.1c0.5-0.2,0.9-0.7,0.9-1.2V44.1h1.4c4.4,0,7.9-3.5,7.9-7.9V8C80,3.6,76.5,0.1,72.1,0.1z
		 M58.7,50.7c0,2.9-2.4,5.2-5.2,5.2L30.7,56c-0.4,0-0.7,0.2-1,0.4l-11,12.1V57.4c0-0.7-0.6-1.3-1.3-1.3H8c-2.9,0-5.2-2.4-5.2-5.2
		V22.7c0-2.9,2.4-5.2,5.2-5.2h12.1l0,0l0,0l33.4-0.1c2.9,0,5.2,2.4,5.2,5.2v24.6V50.7z M77.3,36.2c0,2.9-2.4,5.2-5.2,5.2h-2.8
		c-0.7,0-1.3,0.6-1.3,1.3v11.2l-6.7-7.3v-24c0-4.4-3.5-7.9-7.9-7.9H21.3V7.9c0-2.9,2.4-5.2,5.2-5.2h45.6l0,0c2.9,0,5.2,2.4,5.2,5.2
		V36.2L77.3,36.2z"/>
</g>
</svg>
