<?xml version="1.0" encoding="utf-8"?>
<!-- Generator: Adobe Illustrator 21.1.0, SVG Export Plug-In . SVG Version: 6.00 Build 0)  -->
<svg version="1.1" id="Layer_1" xmlns="http://www.w3.org/2000/svg" xmlns:xlink="http://www.w3.org/1999/xlink" x="0px" y="0px"
	 width="80px" height="67px" viewBox="0 0 80 67" style="enable-background:new 0 0 80 67;" xml:space="preserve">
<g>
	<g>
		<path fill="#94607E" d="M73.4,13.6H56.3V9.4c0-5.2-4.2-9.4-9.4-9.4H33.2c-5.2,0-9.4,4.2-9.4,9.4v4.2H6.7c-3.7,0-6.6,3-6.6,6.6v40.2
			c0,3.7,3,6.6,6.6,6.6h66.8c3.7,0,6.6-3,6.6-6.6V20.2C80,16.5,77,13.6,73.4,13.6z M26.9,9.4c0-3.4,2.8-6.2,6.2-6.2h13.7
			C50.2,3.2,53,6,53,9.4v4.2H26.9L26.9,9.4L26.9,9.4z M76.8,60.4c0,1.9-1.5,3.4-3.4,3.4H6.6c-1.9,0-3.4-1.5-3.4-3.4V20.2
			c0-1.9,1.5-3.4,3.4-3.4h66.8c1.9,0,3.4,1.5,3.4,3.4V60.4L76.8,60.4z"/>
	</g>
</g>
<g>
	<g>
		<path fill="#94607E" d="M57.7,32.8h-9.9v-9.9c0-0.9-0.7-1.6-1.6-1.6H33.9c-0.9,0-1.6,0.7-1.6,1.6v9.9h-9.9c-0.9,0-1.6,0.7-1.6,1.6
			v12.3c0,0.9,0.7,1.6,1.6,1.6h9.9v9.9c0,0.9,0.7,1.6,1.6,1.6h12.3c0.9,0,1.6-0.7,1.6-1.6v-9.9h9.9c0.9,0,1.6-0.7,1.6-1.6V34.3
			C59.3,33.5,58.6,32.8,57.7,32.8z M56.1,45.1h-9.9c-0.9,0-1.6,0.7-1.6,1.6v9.9h-9.1v-9.9c0-0.9-0.7-1.6-1.6-1.6H24V36h9.9
			c0.9,0,1.6-0.7,1.6-1.6v-9.9h9.1v9.9c0,0.9,0.7,1.6,1.6,1.6h9.9V45.1z"/>
	</g>
</g>
<g>
	<g>
		<path fill="#94607E" d="M24.9,18.8H13.7c-0.9,0-1.6,0.7-1.6,1.6s0.7,1.6,1.6,1.6h11.2c0.9,0,1.6-0.7,1.6-1.6
			C26.5,19.6,25.7,18.8,24.9,18.8z"/>
	</g>
</g>
<g>
	<g>
		<path fill="#94607E" d="M8.1,18.8H7.3c-0.9,0-1.6,0.7-1.6,1.6S6.4,22,7.3,22h0.8c0.9,0,1.6-0.7,1.6-1.6C9.7,19.6,9,18.8,8.1,18.8z"/>
	</g>
</g>
</svg>
