<?xml version="1.0" encoding="utf-8"?>
<!-- Generator: Adobe Illustrator 21.1.0, SVG Export Plug-In . SVG Version: 6.00 Build 0)  -->
<svg version="1.1" id="Capa_1" xmlns="http://www.w3.org/2000/svg" xmlns:xlink="http://www.w3.org/1999/xlink" x="0px" y="0px"
	 width="80px" height="73.8px" viewBox="0 0 80 73.8" style="enable-background:new 0 0 80 73.8;" xml:space="preserve">
<g>
	<path fill="#94607E" d="M8.9,63.1c0.5,0.7,1.1,1.3,1.8,1.8c2.9,2,5.8,2.8,8.5,2.8c3.7,0,7-1.6,9.3-3.8c3.9-3.9,5.7-10.9,1.1-17.8
		c-0.5-0.7-1.1-1.3-1.8-1.8c-6.9-4.7-13.9-2.8-17.8,1.1C6.1,49.2,4.3,56.2,8.9,63.1z M19.3,44.6c2.1,0,4.4,0.6,6.8,2.3
		c0.4,0.3,0.7,0.6,1,1l0,0c3.9,5.8,2.1,11.1-0.7,13.9c-2.8,2.8-8.1,4.6-13.9,0.7c-0.4-0.3-0.7-0.6-1-1c-3.9-5.8-2.1-11.1,0.7-13.9
		C13.8,45.9,16.3,44.6,19.3,44.6z"/>
	<path fill="#94607E" d="M76,35.4H52.2c0.1-0.3,0.1-0.6,0.1-0.9V3.9c0-2.2-1.8-4-4-4H17.8c-2.2,0-4,1.8-4,4v30.5c0,0.3,0,0.6,0.1,0.9
		h-10c-2.2,0-4,1.8-4,4v30.6c0,2.2,1.8,4,4,4h30.6c2.2,0,4-1.8,4-4V39.3c0-0.3,0-0.6-0.1-0.9h3.3c-0.1,0.3-0.1,0.6-0.1,0.9v30.6
		c0,2.2,1.8,4,4,4h30.5c2.2,0,4-1.8,4-4V39.3C80,37.1,78.2,35.4,76,35.4z M16.9,34.5V3.9c0-0.5,0.4-0.9,0.9-0.9h30.5
		c0.5,0,0.9,0.4,0.9,0.9v30.5c0,0.5-0.4,0.9-0.9,0.9h-2.8h-11H17.8C17.3,35.4,16.9,35,16.9,34.5z M35.4,39.3v30.6
		c0,0.5-0.4,0.9-0.9,0.9H4c-0.5,0-0.9-0.4-0.9-0.9V39.3c0-0.5,0.4-0.9,0.9-0.9h13.8h16.7C35,38.4,35.4,38.8,35.4,39.3z M76.9,69.9
		c0,0.5-0.4,0.9-0.9,0.9H45.5c-0.5,0-0.9-0.4-0.9-0.9V39.3c0-0.5,0.4-0.9,0.9-0.9h2.8H76c0.5,0,0.9,0.4,0.9,0.9V69.9z"/>
	<path fill="#94607E" d="M33.1,4.6L19.4,18.4L33.1,33l13.7-14.6L33.1,4.6z M23.7,18.5L33.1,9l9.4,9.5l-9.4,10L23.7,18.5z"/>
	<path fill="#94607E" d="M46.7,66.1h28.1L60.7,38.8L46.7,66.1z M51.8,63.1l9-17.5l9,17.5H51.8z"/>
</g>
</svg>
