<?xml version="1.0" encoding="utf-8"?>
<!-- Generator: Adobe Illustrator 21.1.0, SVG Export Plug-In . SVG Version: 6.00 Build 0)  -->
<svg version="1.1" id="Layer_1" xmlns="http://www.w3.org/2000/svg" xmlns:xlink="http://www.w3.org/1999/xlink" x="0px" y="0px"
	 width="80px" height="64.1px" viewBox="0 0 80 64.1" style="enable-background:new 0 0 80 64.1;" xml:space="preserve">
<g>
	<g>
		<path fill="#94607E" d="M15,47.2H8.3c-0.1,0-0.2,0-0.4,0c0.1,0,0.2,0,0.4,0H15c0.1,0,0.2,0,0.4,0C15.2,47.2,15.1,47.2,15,47.2z"/>
	</g>
</g>
<g>
	<g>
		<path fill="#94607E" d="M76.1,52.8c0.4-0.7,0.6-1.5,0.6-2.4c0-2.7-2.2-5-5-5H70v-8.1c0-0.9-0.8-1.7-1.7-1.7s-1.7,0.8-1.7,1.7v8.1
			h-1.7c-1.3,0-2.6,0.5-3.5,1.5c-0.9,0.9-1.5,2.2-1.5,3.5c0,0.6,0.1,1.1,0.3,1.6H19.5c0.2-0.5,0.3-1,0.3-1.6c0-1.2-0.5-2.4-1.2-3.3
			c0.8-0.9,1.2-2,1.2-3.3c0-2.7-2.2-5-5-5h-1.7V16.5c0-3.1,2.2-5.7,5-6.3v1.5c0,2.7,2.2,5,5,5s5-2.2,5-5v-1.5
			c2.9,0.6,5.1,3.2,5.1,6.3v10.8c0,3.9,2.3,7.4,5.8,9v1.1c0,2.7,2.2,5,5,5s5-2.2,5-5v-1.7c2.9-1.8,4.7-5,4.7-8.4v-3.5
			c0-3.6,2.9-6.5,6.5-6.5c1.7,0,3.4,0.7,4.6,1.9c1.2,1.2,1.9,2.8,1.9,4.6v1.3c0,0.9,0.8,1.7,1.7,1.7s1.7-0.8,1.7-1.7v-1.3
			c0-2.6-1-5.1-2.9-7c-1.9-1.9-4.3-2.9-7-2.9c-5.4,0-9.8,4.4-9.8,9.8v3.5c0,1.4-0.5,2.8-1.3,3.9v-0.5c0-1.3-0.5-2.6-1.5-3.5
			c-0.9-0.9-2.2-1.5-3.5-1.5c-2.7,0-5,2.2-5,5v1.7c-1.5-1.2-2.5-3-2.5-5.1V16.5c0-5-3.7-9.1-8.5-9.7V5c0-1.3-0.5-2.6-1.5-3.5
			C25.7,0.6,24.4,0,23.1,0c-2.7,0-5,2.2-5,5v1.8c-4.7,0.7-8.4,4.8-8.4,9.7V39H8c-1.3,0-2.6,0.5-3.5,1.5C3.6,41.4,3,42.7,3,44
			c0,1.2,0.5,2.4,1.2,3.3c-0.8,0.9-1.2,2-1.2,3.3c0,0.9,0.2,1.7,0.6,2.4c-2.3,1.2-3.9,3.6-3.9,6.3v3.3c0,0.9,0.8,1.7,1.7,1.7H78
			c0.9,0,1.7-0.8,1.7-1.7v-3.5C80,56.4,78.4,54,76.1,52.8z M42.5,30.7L42.5,30.7c0-0.9,0.7-1.6,1.6-1.6c0.4,0,0.8,0.2,1.1,0.5
			s0.5,0.7,0.5,1.1v6.7c0,0.9-0.7,1.6-1.6,1.6c-0.9,0-1.6-0.7-1.6-1.6V30.7L42.5,30.7z M21.7,5c0-0.9,0.7-1.6,1.6-1.6
			c0.4,0,0.8,0.2,1.1,0.5s0.5,0.7,0.5,1.1v6.7c0,0.9-0.7,1.6-1.6,1.6c-0.9,0-1.6-0.7-1.6-1.6V5L21.7,5z M63.9,49.3
			c0.3-0.3,0.7-0.5,1.1-0.5h6.7c0.9,0,1.6,0.7,1.6,1.6S72.6,52,71.7,52H65c-0.9,0-1.6-0.7-1.6-1.6C63.4,50,63.6,49.6,63.9,49.3z
			 M7.1,42.8c0.3-0.3,0.7-0.5,1.1-0.5h6.7c0.9,0,1.6,0.7,1.6,1.6c0,0.8-0.6,1.5-1.4,1.6c-0.1,0-0.1,0-0.2,0H8.2c-0.1,0-0.1,0-0.2,0
			c-0.8-0.1-1.4-0.8-1.4-1.6C6.6,43.5,6.8,43.1,7.1,42.8z M7.1,49.3c0.2-0.2,0.5-0.4,0.8-0.4c0.1,0,0.2,0,0.3,0h6.7
			c0.1,0,0.2,0,0.3,0c0.7,0.1,1.3,0.8,1.3,1.6c0,0.9-0.7,1.6-1.6,1.6H8.2l0,0c-0.9,0-1.6-0.7-1.6-1.6C6.6,50,6.8,49.6,7.1,49.3z
			 M76.6,60.8H3.3v-1.7C3.3,57,5,55.4,7,55.4h1.1h6.7h50.1h6.7h1.1c2.1,0,3.7,1.7,3.7,3.7v1.7H76.6z"/>
	</g>
</g>
<g>
	<g>
		<path fill="#94607E" d="M68.4,28.8c-0.9,0-1.7,0.8-1.7,1.7v1.2c0,0.9,0.8,1.7,1.7,1.7s1.7-0.8,1.7-1.7v-1.2
			C70.1,29.6,69.3,28.8,68.4,28.8z"/>
	</g>
</g>
</svg>
