<?xml version="1.0" encoding="utf-8"?>
<!-- Generator: Adobe Illustrator 21.1.0, SVG Export Plug-In . SVG Version: 6.00 Build 0)  -->
<svg version="1.1" id="Layer_1" xmlns="http://www.w3.org/2000/svg" xmlns:xlink="http://www.w3.org/1999/xlink" x="0px" y="0px"
	 width="45px" height="58px" viewBox="0 0 45 58" style="enable-background:new 0 0 45 58;" xml:space="preserve">
<path id="Forma_1" fill="#94607E" d="M44.4,12.2l-0.8-0.8L33.5,1.3l-0.8-0.8c-0.4-0.4-0.8-0.5-1.3-0.6h-29c-1.2,0-2.5,0.9-2.5,2.9V56
	c0.1,1,0.9,1.7,1.8,1.9c0.1,0,0.1,0,0.2,0c0.2,0,0.3,0,0.5,0h40.1c0.2,0,0.3,0,0.5,0c0.1,0,0.1,0,0.2,0c1-0.2,1.7-0.9,1.8-1.9V14
	C45.1,13.3,44.9,12.7,44.4,12.2z M41.4,12H33V3.6L41.4,12z M2.5,56c-0.1,0-0.1,0-0.2,0C2.1,55.9,2,55.8,2,55.6V41h41v14.5
	c0,0.2-0.1,0.3-0.3,0.4c-0.1,0-0.1,0-0.2,0L2.5,56L2.5,56z M2,39V2.9C2,2.7,2,2,2.5,2h28.6c0,0.1-0.1,0.3-0.1,0.4V14h11.6
	c0.1,0,0.3,0,0.4-0.1l0,0v25L2,39L2,39z M15.5,44.7c-0.3-0.3-0.7-0.5-1.1-0.6c-0.4-0.1-0.8-0.2-1.3-0.2h-2.9V54h1.6v-3.6H13
	c0.5,0,1-0.1,1.4-0.2c0.4-0.1,0.8-0.4,1.1-0.7s0.6-0.6,0.7-1c0.2-0.4,0.3-0.9,0.3-1.4s-0.1-0.9-0.3-1.3C16.1,45.4,15.9,45,15.5,44.7
	z M14.9,48.1c-0.1,0.2-0.2,0.5-0.4,0.6S14.2,49,14,49c-0.2,0.1-0.4,0.1-0.6,0.1h-1.5v-4h1.2c0.3,0,0.7,0.1,1,0.2
	c0.2,0.1,0.4,0.3,0.6,0.5c0.1,0.2,0.2,0.4,0.3,0.6c0,0.2,0.1,0.4,0.1,0.6C15.1,47.4,15,47.7,14.9,48.1z M25.5,45.4
	c-0.5-0.5-1-0.8-1.6-1.1c-0.7-0.3-1.5-0.4-2.2-0.4h-3V54h3.8c0.2,0,0.4,0,0.6,0c0.3,0,0.6-0.1,0.9-0.2c0.3-0.1,0.7-0.3,1-0.5
	c0.4-0.3,0.7-0.6,0.9-0.9c0.3-0.5,0.5-1,0.7-1.5c0.2-0.7,0.3-1.4,0.3-2.1c0-0.6-0.1-1.2-0.3-1.8C26.2,46.4,25.9,45.8,25.5,45.4z
	 M24.3,51.7c-0.6,0.7-1.5,1.2-2.4,1.1h-1.6v-7.6h1c0.7,0,1.3,0.1,1.9,0.3c0.4,0.2,0.8,0.5,1.2,0.8c0.3,0.3,0.5,0.7,0.6,1.1
	c0.1,0.4,0.2,0.8,0.2,1.2C25.1,49.7,24.8,50.8,24.3,51.7L24.3,51.7z M29.1,54h1.7v-4.5H35v-1.1h-4.2v-3.2h4.6V44h-6.3V54z M31.9,23
	c-1.1,0-2.3,0.1-3.4,0.4c-2-2.3-3.8-4.8-5.1-7.6c1.3-5.6,0.7-6.4,0.4-6.8c-0.3-0.5-0.7-0.9-1.3-1c-0.3,0-0.7,0.1-1,0.2
	c-0.5,0.2-1,0.7-1.1,1.2c-0.7,1.7,0.3,4.5,1.3,6.6c-1,3.7-2.2,7.3-3.8,10.8c-3.8,1.7-5.8,3.4-6,5.1c-0.1,0.9,0.4,1.8,1.1,2.2
	c0.3,0.2,0.6,0.3,1,0.3l0,0c0.9,0,1.8-0.7,2.8-2.1c0.9-1.3,1.7-2.8,2.4-4.3c2.8-1.2,5.8-2.2,8.8-2.8c1.6,1.5,3,2.3,4.2,2.3
	c0.9,0,1.7-0.4,2.2-1.2c0.5-0.6,0.7-1.4,0.4-2.2C34.4,23.3,33.5,23,31.9,23L31.9,23z M14,32.6c-0.3-0.1-0.4-0.4-0.4-0.7
	c0.1-0.6,0.9-1.5,3.1-2.7C15.1,32.2,14.2,32.6,14,32.6z M22.2,9.7c0,0,1,1.1,0.1,3.2C21.5,12,21.4,10.7,22.2,9.7z M20.2,25.7
	c1-2.5,1.9-5,2.7-7.6c1.1,2,2.4,3.8,3.8,5.5C24.5,24.2,22.3,24.9,20.2,25.7z M33.1,25.3c-0.3,0.3-0.8,0.5-1.2,0.4
	c-0.5,0-0.7-0.3-1.5-0.9c0.6-0.1,1.2-0.1,1.8-0.1c0.4-0.1,0.8,0,1.2,0.2C33.2,25,33.2,25.1,33.1,25.3L33.1,25.3z"/>
</svg>
