<?xml version="1.0" encoding="utf-8"?>
<!-- Generator: Adobe Illustrator 21.1.0, SVG Export Plug-In . SVG Version: 6.00 Build 0)  -->
<svg version="1.1" id="Layer_1" xmlns="http://www.w3.org/2000/svg" xmlns:xlink="http://www.w3.org/1999/xlink" x="0px" y="0px"
	 width="76.6px" height="73.6px" viewBox="0 0 76.6 73.6" style="enable-background:new 0 0 76.6 73.6;" xml:space="preserve">
<g>
	<g>
		<path fill="#94607E" d="M38.3,16.8c3.1,0,5.5-2.6,5.5-5.5c0-3.1-2.4-5.5-5.5-5.5s-5.5,2.4-5.5,5.5C32.8,14.3,35.2,16.8,38.3,16.8z
			 M38.3,8.6c1.5,0,2.4,1.1,2.4,2.4c0,1.3-1.1,2.4-2.4,2.4c-1.3,0-2.4-1-2.4-2.4C35.9,9.8,36.8,8.6,38.3,8.6z"/>
		<path fill="#94607E" d="M15.8,47.7c-3.1,0-5.5,2.4-5.5,5.5s2.4,5.5,5.5,5.5c2.9,0,5.5-2.4,5.5-5.5C21.3,50.2,18.9,47.7,15.8,47.7z
			 M15.8,55.5c-1.3,0-2.4-1.1-2.4-2.4c0-1.3,1-2.4,2.4-2.4c1.3,0,2.4,1.1,2.4,2.4C18.3,54.4,17.3,55.5,15.8,55.5z"/>
		<path fill="#94607E" d="M60.8,42c-5.2,0-9.7,2.4-12.6,6.2l-8.5-7.7v-9c8-0.8,14.3-7.6,14.3-15.7C54,7,47,0,38.2,0S22.4,7.2,22.4,15.8
			c0,8.3,6.4,15,14.3,15.7v8.9l-8.5,7.8c-2.9-3.7-7.4-6.1-12.5-6.1c-8.8,0-15.8,7-15.8,15.8s7.2,15.8,15.8,15.8s15.8-7,15.8-15.8
			c0-2.5-0.6-4.9-1.6-7l8.2-7.6l8.3,7.6c-1,2.1-1.6,4.5-1.6,7c0,8.8,7.2,15.8,15.8,15.8c8.8,0,15.8-7,15.8-15.8S69.6,42,60.8,42z
			 M8.7,68.3c0.8-2.5,3-4.2,5.7-4.2h2.9c2.6,0,4.9,1.7,5.7,4.2c-2,1.4-4.5,2.2-7.1,2.2C13.2,70.5,10.7,69.7,8.7,68.3z M25.4,66.2
			c-1.5-2.9-4.6-5-8.1-5h-2.9c-3.6,0-6.7,1.9-8.1,4.9c-1.9-2.2-3.1-5.1-3.1-8.3c0-7,5.7-12.7,12.7-12.7c6.8,0,12.7,5.7,12.7,12.7
			C28.5,61,27.3,64,25.4,66.2z M38.3,28.5c-2.6,0-5.1-0.8-7.1-2.2c0.8-2.5,3-4.2,5.7-4.2h2.9c2.6,0,4.9,1.7,5.7,4.2
			C43.4,27.7,40.9,28.5,38.3,28.5z M25.6,15.8c0-7,5.7-12.7,12.7-12.7S51,8.8,51,15.8c0,3.2-1.2,6.1-3.2,8.4c-1.5-2.9-4.6-5-8.1-5
			h-2.9c-3.6,0-6.7,1.9-8.1,4.9C26.8,21.9,25.6,19,25.6,15.8z M53.7,68.3c0.8-2.5,3-4.2,5.7-4.2h2.9c2.6,0,4.9,1.7,5.7,4.2
			c-2,1.4-4.5,2.2-7.1,2.2C58.2,70.5,55.7,69.7,53.7,68.3z M70.3,66.2c-1.5-2.9-4.6-5-8.1-5h-2.9c-3.6,0-6.7,1.9-8.1,4.9
			c-1.9-2.2-3.1-5.1-3.1-8.3c0-7,5.7-12.7,12.7-12.7s12.7,5.7,12.7,12.7C73.5,61,72.3,64,70.3,66.2z"/>
		<path fill="#94607E" d="M60.8,47.7c-3.1,0-5.5,2.4-5.5,5.5s2.4,5.5,5.5,5.5s5.5-2.4,5.5-5.5C66.3,50.2,63.9,47.7,60.8,47.7z
			 M60.8,55.5c-1.3,0-2.4-1.1-2.4-2.4c0-1.3,1-2.4,2.4-2.4c1.5,0,2.4,1.1,2.4,2.4C63.2,54.4,62.3,55.5,60.8,55.5z"/>
	</g>
</g>
</svg>
