<?xml version="1.0" encoding="utf-8"?>
<!-- Generator: Adobe Illustrator 21.1.0, SVG Export Plug-In . SVG Version: 6.00 Build 0)  -->
<svg version="1.1" id="Layer_1" xmlns="http://www.w3.org/2000/svg" xmlns:xlink="http://www.w3.org/1999/xlink" x="0px" y="0px"
	 width="80px" height="80px" viewBox="0 0 80 80" style="enable-background:new 0 0 80 80;" xml:space="preserve">
<g>
	<g>
		<g>
			<path fill="#94607E" d="M29.3,49.3c0,0.7,0.6,1.3,1.3,1.3h5.3c0.7,0,1.3-0.6,1.3-1.3v-8c0-0.7-0.6-1.3-1.3-1.3h-5.3
				c-0.7,0-1.3,0.6-1.3,1.3V49.3L29.3,49.3z M32,42.7h2.7V48H32V42.7z"/>
			<path fill="#94607E" d="M30.7,34.7H36c0.7,0,1.3-0.6,1.3-1.3v-8c0-0.7-0.6-1.3-1.3-1.3h-5.3c-0.7,0-1.3,0.6-1.3,1.3v8
				C29.3,34.1,29.9,34.7,30.7,34.7z M32,26.7h2.7V32H32V26.7z"/>
			<path fill="#94607E" d="M20.7,25.1L40,13.5l19.3,11.6c0.2,0.1,0.5,0.2,0.7,0.2c0.5,0,0.9-0.2,1.1-0.6c0.4-0.6,0.2-1.5-0.5-1.8
				L41.2,11.3V2.7h6.7v2.7h-4c-0.7,0-1.3,0.6-1.3,1.3S43.2,8,43.9,8h5.3c0.7,0,1.3-0.6,1.3-1.3V1.3c0-0.7-0.6-1.3-1.3-1.3h-9.3
				c-0.7,0-1.3,0.6-1.3,1.3v9.9L19.2,22.8c-0.6,0.4-0.8,1.2-0.5,1.8C19.2,25.3,20.1,25.5,20.7,25.1z"/>
			<path fill="#94607E" d="M14.7,50.7c0.7,0,1.3-0.6,1.3-1.3v-8c0-0.7-0.6-1.3-1.3-1.3H9.4c-0.7,0-1.3,0.6-1.3,1.3V44
				c0,0.7,0.6,1.3,1.3,1.3s1.3-0.6,1.3-1.3v-1.3h2.7v6.7C13.3,50.1,13.9,50.7,14.7,50.7z"/>
			<path fill="#94607E" d="M24,68V29.3c0-0.7-0.6-1.3-1.3-1.3s-1.3,0.6-1.3,1.3V68c0,0.7,0.6,1.3,1.3,1.3S24,68.7,24,68z"/>
			<path fill="#94607E" d="M17.3,74.7h45.3c0.7,0,1.3-0.6,1.3-1.3c0-0.7-0.6-1.3-1.3-1.3h-12V58.7h1.3c0.7,0,1.3-0.6,1.3-1.3
				s-0.6-1.3-1.3-1.3h-24c-0.7,0-1.3,0.6-1.3,1.3s0.6,1.3,1.3,1.3h1.3V72h-12c-0.7,0-1.3,0.6-1.3,1.3C16,74.1,16.6,74.7,17.3,74.7z
				 M41.3,66.7c0.7,0,1.3-0.6,1.3-1.3c0-0.7-0.6-1.3-1.3-1.3v-5.3H48V72h-6.7V66.7z M32,58.7h6.7V64c-0.7,0-1.3,0.6-1.3,1.3
				c0,0.7,0.6,1.3,1.3,1.3V72H32V58.7z"/>
			<path fill="#94607E" d="M70.7,57.3h-5.3c-0.7,0-1.3,0.6-1.3,1.3v8c0,0.7,0.6,1.3,1.3,1.3h5.3c0.7,0,1.3-0.6,1.3-1.3v-8
				C72,57.9,71.4,57.3,70.7,57.3z M69.3,65.3h-2.7V60h2.7V65.3z"/>
			<path fill="#94607E" d="M70.7,41.3h-5.3c-0.7,0-1.3,0.6-1.3,1.3v8c0,0.7,0.6,1.3,1.3,1.3h5.3c0.7,0,1.3-0.6,1.3-1.3v-8
				C72,41.9,71.4,41.3,70.7,41.3z M69.3,49.3h-2.7V44h2.7V49.3z"/>
			<path fill="#94607E" d="M68,77.3H12c-0.7,0-1.3,0.6-1.3,1.3c0,0.7,0.6,1.3,1.3,1.3h56c0.7,0,1.3-0.6,1.3-1.3S68.7,77.3,68,77.3z"/>
			<path fill="#94607E" d="M78.7,29.3c-0.7,0-1.3,0.6-1.3,1.3V32H62.7c-0.7,0-1.3,0.6-1.3,1.3s0.6,1.3,1.3,1.3h14.7v44
				c0,0.7,0.6,1.3,1.3,1.3s1.3-0.6,1.3-1.3v-48C80,29.9,79.4,29.3,78.7,29.3z"/>
			<path fill="#94607E" d="M42.7,49.3c0,0.7,0.6,1.3,1.3,1.3h5.3c0.7,0,1.3-0.6,1.3-1.3v-8c0-0.7-0.6-1.3-1.3-1.3H44
				c-0.7,0-1.3,0.6-1.3,1.3V49.3z M45.3,42.7H48V48h-2.7V42.7z"/>
			<path fill="#94607E" d="M13.3,65.3c0-0.2-0.1-17.3-6.7-17.3C0,48-0.1,65.2-0.1,65.3c0,3.2,2.3,5.9,5.3,6.5v6.8
				c0,0.7,0.6,1.3,1.3,1.3s1.3-0.6,1.3-1.3v-6.8C11,71.2,13.3,68.6,13.3,65.3z M6.7,69.3c-2.2,0-4-1.8-4-4c0-6.6,1.8-14.7,4-14.7
				s4,8,4,14.7C10.7,67.5,8.9,69.3,6.7,69.3z"/>
			<path fill="#94607E" d="M58.7,68V28c0-0.7-0.6-1.3-1.3-1.3s-1.3,0.6-1.3,1.3v40c0,0.7,0.6,1.3,1.3,1.3C58.1,69.3,58.7,68.7,58.7,68z
				"/>
			<path fill="#94607E" d="M44,34.7h5.3c0.7,0,1.3-0.6,1.3-1.3v-8c0-0.7-0.6-1.3-1.3-1.3H44c-0.7,0-1.3,0.6-1.3,1.3v8
				C42.7,34.1,43.3,34.7,44,34.7z M45.3,26.7H48V32h-2.7V26.7z"/>
			<path fill="#94607E" d="M1.3,46.7c0.7,0,1.3-0.6,1.3-1.3V34.7h14.7c0.7,0,1.3-0.6,1.3-1.3s-0.6-1.3-1.3-1.3H2.6v-1.3
				c0-0.7-0.6-1.3-1.3-1.3S0,30.1,0,30.8v14.7C0,46.1,0.6,46.7,1.3,46.7z"/>
		</g>
	</g>
</g>
</svg>
