<?xml version="1.0" encoding="utf-8"?>
<!-- Generator: Adobe Illustrator 21.1.0, SVG Export Plug-In . SVG Version: 6.00 Build 0)  -->
<svg version="1.1" id="Layer_1" xmlns="http://www.w3.org/2000/svg" xmlns:xlink="http://www.w3.org/1999/xlink" x="0px" y="0px"
	 width="80px" height="64.8px" viewBox="0 0 80 64.8" style="enable-background:new 0 0 80 64.8;" xml:space="preserve">
<style type="text/css">
	.st0{fill:#FF6651;}
</style>
<g>
	<g>
		<path class="st0" d="M73.4,0H6.6C3,0,0,3,0,6.6v40.1c0,3.6,3,6.6,6.6,6.6h4.1v8.9c0,1.1,0.6,2,1.6,2.4c0.3,0.1,0.7,0.2,1,0.2
			c0.7,0,1.3-0.3,1.8-0.8l10.7-10.7h47.6c3.6,0,6.6-3,6.6-6.6V6.6C80,3,77,0,73.4,0z M77.5,46.7c0,2.3-1.8,4.1-4.1,4.1H25.3
			c-0.3,0-0.7,0.1-0.9,0.4L13.3,62.3c0,0,0,0-0.1,0s-0.1,0-0.1-0.1V52c0-0.7-0.6-1.3-1.3-1.3H6.5c-2.3,0-4.1-1.8-4.1-4.1v-40
			c0-2.3,1.8-4.1,4.1-4.1h66.8c2.3,0,4.1,1.8,4.1,4.1L77.5,46.7L77.5,46.7z"/>
	</g>
</g>
<g>
	<g>
		<path class="st0" d="M35.9,38.3l-7.4-23.5c-0.5-1.6-2-2.7-3.7-2.7h-1.4c-1.7,0-3.2,1.1-3.7,2.7l-7.4,23.5
			c-0.2,0.7,0.2,1.4,0.8,1.6c0.7,0.2,1.4-0.2,1.6-0.8l1.8-5.8h15.3l1.8,5.8c0.2,0.5,0.7,0.9,1.2,0.9c0.1,0,0.3,0,0.4-0.1
			C35.7,39.7,36.1,39,35.9,38.3z M17.1,30.8l4.8-15.2c0.2-0.6,0.7-1,1.4-1h1.4c0.6,0,1.2,0.4,1.4,1l4.8,15.2H17.1z"/>
	</g>
</g>
<g>
	<g>
		<path class="st0" d="M44,24.1c-1.5,0-3,0.5-4.1,1.4V14.6c0-0.7-0.6-1.3-1.3-1.3s-1.3,0.6-1.3,1.3v18.7c0,3.6,3,6.6,6.6,6.6
			c4.4,0,7.9-3.6,7.9-7.9S48.4,24.1,44,24.1z M44,37.4c-2.3,0-4.1-1.8-4.1-4.1v-2.7c0-2.3,1.8-4.1,4.1-4.1c3,0,5.4,2.4,5.4,5.4
			C49.4,35,47,37.4,44,37.4z"/>
	</g>
</g>
<g>
	<g>
		<path class="st0" d="M67.5,35c-0.6-0.4-1.3-0.3-1.8,0.2c-1,1.4-2.6,2.2-4.3,2.2c-3,0-5.4-2.4-5.4-5.4s2.4-5.4,5.4-5.4
			c1.7,0,3.3,0.8,4.3,2.2c0.4,0.6,1.2,0.7,1.8,0.3s0.7-1.2,0.3-1.8c-1.5-2-3.8-3.2-6.3-3.2c-4.4,0-7.9,3.6-7.9,7.9s3.6,7.9,7.9,7.9
			c2.5,0,4.8-1.2,6.3-3.2C68.1,36.2,68,35.4,67.5,35z"/>
	</g>
</g>
</svg>
