<?xml version="1.0" encoding="utf-8"?>
<!-- Generator: Adobe Illustrator 22.1.0, SVG Export Plug-In . SVG Version: 6.00 Build 0)  -->
<svg version="1.1" id="Layer_1" xmlns="http://www.w3.org/2000/svg" xmlns:xlink="http://www.w3.org/1999/xlink" x="0px" y="0px"
	 width="108.1px" height="80.1px" viewBox="0 0 108.1 80.1" enable-background="new 0 0 108.1 80.1" xml:space="preserve">
<path id="Arrow" fill="#FF6651" d="M42.4,5c1.4-1.4,1.4-3.3,0-4.2C41.9,0.4,41,0,40,0c-0.9,0-1.4,0.5-2.4,0.9L0.9,37.6
	c-0.5,0.5-0.5,0.5-0.5,0.9c-0.5,0.9-0.5,1.4,0,2.4c0,0.5,0.5,0.9,0.5,0.9l37.3,37.2c0.9,1.4,3.3,1.4,4.2,0c1.4-0.9,1.4-3.3,0-4.2
	l0,0l-32-31.5H105c1.9,0,3.3-1.4,3.3-3.3s-1.4-3.3-3.3-3.3H10.4L42.4,5z"/>
</svg>
