<?xml version="1.0" encoding="utf-8"?>
<!-- Generator: Adobe Illustrator 21.1.0, SVG Export Plug-In . SVG Version: 6.00 Build 0)  -->
<svg version="1.1" id="Capa_1" xmlns="http://www.w3.org/2000/svg" xmlns:xlink="http://www.w3.org/1999/xlink" x="0px" y="0px"
	 width="64.3px" height="80px" viewBox="0 0 64.3 80" style="enable-background:new 0 0 64.3 80;" xml:space="preserve">
<style type="text/css">
	.st0{fill:#94607E;}
</style>
<g>
	<path class="st0" d="M56.7,24.3c-5.8-4.6-14.1-3.3-20.6-1.7C35,22.9,34,23,32.9,23c-0.2-0.9-0.4-1.7-0.6-2.6l5-0.8
		c6.5-1,11.5-6,12.4-12.4l0.7-5c0.1-0.2,0.1-0.4,0.1-0.5l0.3-1.8L43.5,1C37,2,32,7,31.1,13.4l-0.4,3c-1.5-2.9-3.7-5.4-6.6-7
		C23.4,9,22.6,9.3,22.3,10c-0.4,0.7-0.1,1.5,0.6,1.8c4.1,2.2,6.4,6.7,7.4,11.1c-0.6-0.1-1.3-0.2-1.9-0.3c-6.5-1.6-14.8-2.9-20.6,1.7
		c-5.2,4.1-7.7,12.2-7.6,24.8c0,9.3,5.4,20,13,26.1c5,4,10.5,5.5,15.7,4.3c2.3-0.5,4.7-0.5,7,0c1.2,0.3,2.3,0.4,3.5,0.4
		c4.1,0,8.3-1.6,12.2-4.7c7.6-6.1,13-16.8,13-26.1C64.4,36.6,61.9,28.4,56.7,24.3z M36.9,17.1l-1.2,0.2L47.2,5.8L47,7
		C46.3,12.2,42.2,16.3,36.9,17.1z M43.9,3.8l1.8-0.3L33.5,15.7l0.3-1.8C34.5,8.6,38.6,4.6,43.9,3.8z M49.7,73.2
		c-3,2.4-7.8,5.1-13.4,3.8c-1.3-0.3-2.7-0.5-4.1-0.5c-1.4,0-2.7,0.2-4.1,0.5c-5.5,1.2-10.3-1.4-13.4-3.8c-6.9-5.5-12-15.6-12-24
		C2.6,37.5,4.8,30.1,9.3,26.5c3.8-3,9.5-3.4,18.3-1.2c1,0.2,2,0.4,3,0.5c0.1,0.7,0.1,1.4,0.2,2c0,0.7,0.6,1.3,1.3,1.3l0,0
		c0.7,0,1.3-0.6,1.3-1.4c0-0.6-0.1-1.3-0.1-1.9c1.2-0.1,2.3-0.2,3.5-0.5c8.8-2.2,14.5-1.8,18.3,1.2c4.5,3.6,6.7,11,6.6,22.7
		C61.6,57.6,56.6,67.7,49.7,73.2z"/>
	<path class="st0" d="M18.9,27.3c-6.7,0-12.2,6.1-12.2,13.5c0,0.7,0.6,1.4,1.4,1.4c0.7,0,1.4-0.6,1.4-1.4c0-6,4.2-10.8,9.5-10.8
		c0.7,0,1.4-0.6,1.4-1.4S19.7,27.3,18.9,27.3z"/>
	<path class="st0" d="M36.1,27.7c-1.1,1.1-2.6,1.7-4.1,1.7s-3-0.6-4.1-1.7c-0.5-0.5-1.4-0.5-1.9,0s-0.5,1.4,0,1.9
		c1.6,1.6,3.7,2.5,6,2.5s4.4-0.9,6-2.5c0.5-0.5,0.5-1.4,0-1.9C37.5,27.2,36.6,27.2,36.1,27.7z"/>
</g>
</svg>
