<?xml version="1.0" encoding="utf-8"?>
<!-- Generator: Adobe Illustrator 21.1.0, SVG Export Plug-In . SVG Version: 6.00 Build 0)  -->
<svg version="1.1" id="Layer_1" xmlns="http://www.w3.org/2000/svg" xmlns:xlink="http://www.w3.org/1999/xlink" x="0px" y="0px"
	 width="80px" height="80px" viewBox="0 0 80 80" style="enable-background:new 0 0 80 80;" xml:space="preserve">
<style type="text/css">
	.st0{fill:#94607E;}
</style>
<g>
	<g>
		<g>
			<path class="st0" d="M74.9,13.2v-9L78,6.5l1.5-2.1L73.6,0l-5.9,4.4l1.5,2.1l3.1-2.3v9c0,3.5-2.9,6.4-6.4,6.4h-5.1
				c-4.1,0-7.5,2.6-8.6,6.4h-1.8v2.6h1.5v4c-0.6-0.1-1.3-0.2-1.9-0.2c-3,0-5.9,1-8.2,2.8c-1.7-1.8-4.1-2.8-6.6-2.8
				c-0.9,0-1.7,0.1-2.6,0.4v-8.1c0-4.3-3.5-7.7-7.7-7.7h-1.4v-2.6h-2.6V17H17c-4.3,0-7.7,3.5-7.7,7.7v2.6c0,1.4-1.2,2.6-2.6,2.6H4.1
				l2.3-3.1l-2.1-1.5l-4.4,5.9l4.4,5.9l2.1-1.5l-2.3-3.1h2.6c2.8,0,5.1-2.3,5.1-5.1v-2.6c0-2.8,2.3-5.1,5.1-5.1h7.7
				c2.8,0,5.1,2.3,5.1,5.1v9.3c-0.6,0.4-1.1,0.8-1.5,1.4c-1-0.3-2-0.4-3-0.4c-5.5,0-10.1,4.1-10.8,9.4C9.8,45.9,6.6,50.1,6.6,55
				c0,2.3,0.7,4.5,2,6.3c-0.5,1.3-0.7,2.6-0.7,3.9c0,6,4.9,10.9,10.9,10.9c0.5,0,1,0,1.4-0.1c0.1,0,0.2,0,0.3,0
				c0.5-0.1,0.9-0.2,1.4-0.3c1.8,1.1,3.8,1.7,5.9,1.7c2.4,0,4.6-0.7,6.5-2.1c2,2.9,5.3,4.7,9,4.7c3.4,0,6.5-1.5,8.5-4.1
				c1.7,1,3.6,1.6,5.6,1.6c6,0,10.9-4.9,10.9-10.9c0-1.3-0.2-2.6-0.7-3.8c2.1-2,3.3-4.8,3.3-7.8c0-0.7-0.1-1.3-0.2-1.9h0.2v-2.6h-1
				c-1.3-2.8-3.7-5.1-6.8-6c-0.6-5.3-4.1-9.6-8.9-11.2v-4.6c0-3.5,2.9-6.4,6.4-6.4h5.1C70.8,22.2,74.9,18.1,74.9,13.2z M60.7,45.5v1
				l1,0.2c2.3,0.5,4.2,1.9,5.4,3.8V53h1c0.2,0.6,0.3,1.3,0.3,1.9c0,2-0.7,4-2.1,5.5c-1.8-2.5-4.8-4.1-8.1-4.3L58,58.5
				c4.3,0.3,7.6,3.4,7.8,8.3c-0.2,4.5-3.8,8.1-8.3,8.1c-1.9,0-3.6-0.6-5.1-1.8l-0.5-0.4c-1.6-1.4-2.6-3.4-2.7-5.6l-2.6,0.2
				c0.2,2.7,1.4,5.2,3.3,7.1c-1.6,2-3.9,3.1-6.5,3.1c-3.2,0-6.1-1.8-7.5-4.7l-0.8-1.6l-1.3,1.3c-1.6,1.6-3.7,2.4-5.9,2.4
				c-1,0-2-0.2-2.9-0.6c2.9-2,4.9-5.3,4.9-9.1c0-0.3,0-0.5-0.1-0.8c2-0.4,4-1.3,5.5-2.7l-1.7-1.9c-1.2,1.1-2.7,1.8-4.3,2.1
				c-0.9-2.7-2.7-5-5.3-6.3l-1.2,2.3c2.8,1.5,4.5,4.3,4.5,7.4c0,3.6-2.3,6.7-5.5,7.8c-0.5,0.2-0.9,0.3-1.4,0.4h-0.1
				c-0.5,0.1-0.9,0.1-1.4,0.1c-4.6,0-8.4-3.7-8.4-8.4c0-1.2,0.3-2.4,0.8-3.6l0.4-0.7l-0.5-0.6C10,58.8,9.3,56.9,9.3,55
				c0-4,2.8-7.4,6.7-8.2l1-0.2v-1c0.1-2.8,1.6-5.2,3.8-6.6v2.5h2.6v-3.6c0.6-0.1,1.3-0.2,1.9-0.2c1,0,2,0.2,2.9,0.5l0.9,0.3l0.6-0.8
				c0,0,0-0.1,0.1-0.1V44h2.6v-8.4c0.8-0.4,1.7-0.6,2.6-0.6c1.8,0,3.5,0.7,4.7,2c-2.2,2.5-3.7,5.6-3.7,8.9c0,7.4,6.7,13.5,13.2,13.5
				v-2.6c-5.1,0-10.6-4.9-10.6-10.9c0-2.7,1.2-5.3,2.9-7.3l0.7-0.6c2.1-2,4.8-3,7.5-3c0.7,0,1.3,0.1,2,0.2v5c0,3.5-2.9,6.4-6.4,6.4
				H44v2.6h1.3c5,0,9-4,9-9V36C58,37.6,60.5,41.2,60.7,45.5z"/>
			<rect x="59.4" y="50.4" class="st0" width="3.9" height="2.6"/>
			<rect x="65.9" y="26" class="st0" width="3.9" height="2.6"/>
			<path class="st0" d="M45.9,27.4l1.3-2.2c-0.9-0.5-1.7-1.3-2.3-2.2l-2.2,1.3C43.5,25.5,44.6,26.6,45.9,27.4z"/>
			<path class="st0" d="M41.4,19.6L41.4,19.6c0,0.1,0,0.3,0,0.4l2.6-0.3v-4h-2.6V19.6z"/>
			<rect x="41.4" y="8" class="st0" width="2.6" height="3.9"/>
			<path class="st0" d="M74.1,49.7l1.2,2.3c1.3-0.7,2.4-1.8,3.3-3l-2.2-1.4C75.8,48.4,75,49.1,74.1,49.7z"/>
			<path class="st0" d="M77.4,44c0,0.2,0,0.3,0,0.5l2.6,0.2c0-0.2,0-0.4,0-0.6v-3.9h-2.6V44z"/>
			<rect x="58.2" y="26" class="st0" width="3.9" height="2.6"/>
			<path class="st0" d="M79.7,32.7l-2.5,0.7c0.1,0.5,0.2,1.1,0.2,1.7v1.3H80V35C80,34.2,79.9,33.4,79.7,32.7z"/>
			<path class="st0" d="M77.5,28.8c-1-1.1-2.3-1.9-3.8-2.4l-0.8,2.4c1,0.3,2,0.9,2.7,1.7L77.5,28.8z"/>
			<polygon class="st0" points="41.4,4.2 44,4.2 47.1,6.5 48.6,4.4 42.7,0 36.8,4.4 38.4,6.5 			"/>
			<rect x="20.9" y="6.7" class="st0" width="2.6" height="3.9"/>
			<rect x="20.9" y="29.9" class="st0" width="2.6" height="3.9"/>
			<rect x="20.9" y="22.2" class="st0" width="2.6" height="3.9"/>
			<rect x="20.9" y="45.3" class="st0" width="2.6" height="3.9"/>
			<polygon class="st0" points="22.2,3.2 26.5,6.5 28.1,4.4 22.2,0 16.3,4.4 17.8,6.5 			"/>
		</g>
	</g>
</g>
</svg>
