<?xml version="1.0" encoding="utf-8"?>
<!-- Generator: Adobe Illustrator 21.1.0, SVG Export Plug-In . SVG Version: 6.00 Build 0)  -->
<svg version="1.1" id="Layer_1" xmlns="http://www.w3.org/2000/svg" xmlns:xlink="http://www.w3.org/1999/xlink" x="0px" y="0px"
	 width="80px" height="69.3px" viewBox="0 0 80 69.3" style="enable-background:new 0 0 80 69.3;" xml:space="preserve">
<style type="text/css">
	.st0{fill:#94607E;}
</style>
<g>
	<g>
		<g>
			<path class="st0" d="M41.3,40c-4.7,0-8,3.3-8,8v1.3c0,6.5,3.7,10.7,9.3,10.7c5.7,0,9.3-4.2,9.3-10.7V48c0-4.7-3.3-8-8-8
				C43.9,40,41.3,40,41.3,40z M49.3,48v1.3c0,2.4-0.7,8-6.7,8s-6.7-5.6-6.7-8V48c0-3.2,2.1-5.3,5.3-5.3h2.7
				C47.2,42.7,49.3,44.8,49.3,48z"/>
			<path class="st0" d="M40,48L40,48c-0.7,0-1.3,0.6-1.3,1.3c0,0.7,0.6,1.3,1.3,1.3s1.3-0.6,1.3-1.3C41.4,48.6,40.8,48,40,48z"/>
			<path class="st0" d="M46.6,30.7c0.7,0,1.4-0.5,1.4-1.2l1.3-17.3c0.3-3.2,4.6-6.8,8-6.8H60c3.5,0,7.8,3.6,8,6.8l1.3,17.3
				c0.1,0.7,0.6,1.2,1.3,1.2h0.1c0.7-0.1,1.3-0.7,1.2-1.4L70.6,12c-0.4-4.9-6.3-9.2-10.7-9.2h-2.7C52.3,2.8,47,7.4,46.5,12
				l-1.3,17.3C45.3,30,45.8,30.6,46.6,30.7z"/>
			<path class="st0" d="M58.6,11.6c-0.2-0.5-0.7-0.9-1.3-0.9s-1.1,0.4-1.3,0.9c-1,3-4,3.1-4.1,3.1c-0.7,0-1.3,0.6-1.3,1.3v5.3
				c0,4.5,3,10.7,8,10.7s8-6.2,8-10.7V16c0-0.7-0.6-1.3-1.3-1.3C65.3,14.7,59.6,14.6,58.6,11.6z M64,21.4c0,3.6-2.4,8-5.3,8
				c-3,0-5.3-4.4-5.3-8v-4.2c1.3-0.3,2.9-1,4.1-2.6c1.9,1.9,4.8,2.5,6.6,2.6L64,21.4L64,21.4z"/>
			<path class="st0" d="M26.7,13.4H28c0.7,0,1.3-0.6,1.3-1.3s-0.6-1.3-1.3-1.3h-1.3c-0.7,0-1.3,0.6-1.3,1.3
				C25.3,12.8,25.9,13.4,26.7,13.4z"/>
			<path class="st0" d="M45.4,50.7c0.7,0,1.3-0.6,1.3-1.3c0-0.7-0.6-1.3-1.3-1.3l0,0c-0.7,0-1.3,0.6-1.3,1.3
				C44,50.1,44.6,50.7,45.4,50.7z"/>
			<path class="st0" d="M13.4,15.7c0.3,2.6,1.4,4.8,1.4,4.9c1.2,2.4,3,6.1,9.2,6.1s8-3.7,9.2-6.1c0.1-0.1,1.2-2.4,1.4-4.9
				c0.8-0.5,1.4-1.3,1.4-2.3v-2.7c0-1-0.5-1.8-1.3-2.3V8c0-4.4-3.6-8-8-8h-5.3c-4.4,0-8,3.6-8,8v0.4c-0.8,0.5-1.3,1.3-1.3,2.3v2.7
				C12,14.4,12.6,15.3,13.4,15.7z M14.7,10.7c0.7,0,1.3-0.6,1.3-1.3V8.1c0-2.9,2.4-5.3,5.3-5.3h5.3c2.9,0,5.3,2.4,5.3,5.3v1.3
				c0,0.7,0.6,1.3,1.3,1.3v2.7c-0.7,0-1.3,0.6-1.3,1.3c0,2.3-1.2,4.7-1.2,4.7c-1.4,2.8-2.6,4.6-6.8,4.6s-5.4-1.8-6.8-4.6
				c0,0-1.2-2.4-1.2-4.7c0-0.7-0.6-1.3-1.3-1.3L14.7,10.7L14.7,10.7z"/>
			<path class="st0" d="M46.7,61.4c-0.3,0-0.5,0.1-0.7,0.2l-3.3,2.2l-3.3-2.2c-0.2-0.1-0.5-0.2-0.7-0.2c-7.7,0-9.3,3.6-9.3,6.7
				c0,0.7,0.6,1.3,1.3,1.3s1.3-0.6,1.3-1.3c0-1.1,0-3.9,6.3-4l3.7,2.4c0.4,0.3,1,0.3,1.5,0l3.7-2.4c6.3,0.1,6.3,2.9,6.3,4
				c0,0.7,0.6,1.3,1.3,1.3s1.3-0.6,1.3-1.3C56,65,54.4,61.4,46.7,61.4z"/>
			<path class="st0" d="M70.8,45.4L70.8,45.4c-0.7,0-1.3,0.6-1.3,1.3L69.4,68c0,0.7,0.6,1.3,1.3,1.3l0,0c0.7,0,1.3-0.6,1.3-1.3
				l0.1-21.3C72.1,46,71.5,45.4,70.8,45.4z"/>
			<path class="st0" d="M20,13.4h1.3c0.7,0,1.3-0.6,1.3-1.3s-0.6-1.3-1.3-1.3H20c-0.7,0-1.3,0.6-1.3,1.3S19.3,13.4,20,13.4z"/>
			<path class="st0" d="M30.6,37.6l1.1-5.6c6.7,0.2,11.6,1.8,13.1,4.6c0.4,0.6,1.2,0.9,1.8,0.5s0.9-1.2,0.5-1.8
				c-2.1-3.8-7.9-6-16.4-6c-0.7,0-1.3,0.4-1.4,1.1L28,37c-0.1,0.7,0.3,1.4,1,1.6c0.1,0,0.2,0,0.3,0C30,38.7,30.5,38.3,30.6,37.6z"/>
			<path class="st0" d="M76.7,36c-2.6-2.6-6.5-4-11.4-4c-0.8,0-1.4,0.6-1.4,1.3c0,0.3-0.1,6.7-5.3,6.7s-5.3-6.4-5.3-6.7
				c0-0.7-0.6-1.3-1.3-1.3s-1.3,0.6-1.3,1.3c0,3,1.4,8.4,6.7,9.2v6.8c0,0.7,0.6,1.3,1.3,1.3S60,50,60,49.3v-6.8
				c4.5-0.7,6.2-4.8,6.6-7.8c3.5,0.2,6.4,1.3,8.3,3.2c1.6,1.6,2.5,3.8,2.5,6.1v21.3c0,0.7,0.6,1.3,1.3,1.3S80,66,80,65.3V44
				C80,41,78.8,38.1,76.7,36z"/>
			<path class="st0" d="M24,29.4c-1.5,0-2.7,1.2-2.7,2.7c0,1,0.5,1.8,1.3,2.3v9.7c0,0.7,0.6,1.3,1.3,1.3s1.3-0.6,1.3-1.3v-9.7
				c0.8-0.5,1.3-1.3,1.3-2.3C26.7,30.6,25.5,29.4,24,29.4z"/>
			<path class="st0" d="M9.3,45.4C8.6,45.4,8,46,8,46.7V68c0,0.7,0.6,1.3,1.3,1.3s1.3-0.6,1.3-1.3V46.7C10.7,46,10.1,45.4,9.3,45.4z
				"/>
			<path class="st0" d="M18.6,30.4c-0.1-0.6-0.8-1.1-1.4-1.1c-7,0-12.4,1.5-15.1,4.2C0.7,34.9,0,36.6,0,38.6v26.7
				c0,0.7,0.6,1.3,1.3,1.3s1.3-0.6,1.3-1.3V38.7c0-1.2,0.4-2.3,1.4-3.2c2.1-2.1,6.5-3.3,12.2-3.4L22.6,63c0.1,0.7,0.9,1.2,1.6,1
				c0.7-0.2,1.2-0.9,1-1.6L18.6,30.4z"/>
		</g>
	</g>
</g>
</svg>
