<?xml version="1.0" encoding="utf-8"?>
<!-- Generator: Adobe Illustrator 21.1.0, SVG Export Plug-In . SVG Version: 6.00 Build 0)  -->
<svg version="1.1" id="Layer_1" xmlns="http://www.w3.org/2000/svg" xmlns:xlink="http://www.w3.org/1999/xlink" x="0px" y="0px"
	 width="67.2px" height="80px" viewBox="0 0 67.2 80" style="enable-background:new 0 0 67.2 80;" xml:space="preserve">
<style type="text/css">
	.st0{fill:#94607E;}
</style>
<path id="Heart_Shield_Icon" class="st0" d="M33.6,80c-0.2,0-0.4,0-0.6-0.1C27.1,77.3,21.6,74,16.6,70C5.7,61.2,0,50.8,0,40V10.8
	c0-0.5,0.3-1,0.7-1.3C1.3,9.1,15.6,0,33.6,0s32.3,9.1,32.9,9.5c0.4,0.3,0.7,0.8,0.7,1.3V40c0,10.9-5.7,21.2-16.6,30
	c-5,4-10.6,7.3-16.4,9.9C34,80,33.8,80,33.6,80z M3.1,11.7V40c0,22.3,26.3,34.9,30.5,36.8C37.8,75,64.1,62.3,64.1,40V11.7
	C61,9.9,48.4,3.1,33.6,3.1C18.7,3.1,6.1,9.9,3.1,11.7z M33.5,58.5L33.5,58.5c-0.4,0-0.8-0.2-1.1-0.5L17.1,42.4
	c-4.4-4.8-4.4-12.3,0-17.3c4.1-4.5,11.1-4.8,15.6-0.8c0.3,0.2,0.5,0.5,0.8,0.8c0.1,0.1,0.1,0.1,0.2,0.2c0.1-0.1,0.1-0.1,0.2-0.2
	c4.1-4.5,11.1-4.8,15.6-0.7c0.3,0.2,0.5,0.5,0.7,0.7c4.4,4.8,4.4,12.3,0,17.2l0,0L34.6,58C34.3,58.3,33.9,58.5,33.5,58.5L33.5,58.5z
	 M25.3,24.6c-2.3,0-4.4,1-5.9,2.7c-3.4,3.7-3.4,9.3,0,13l14.2,14.5l14.3-14.5c3.4-3.7,3.4-9.3,0-12.9c-3-3.3-8-3.6-11.4-0.6
	c-0.2,0.2-0.4,0.4-0.6,0.6c-0.4,0.3-0.8,0.8-1.1,1.3c-0.5,0.7-1.5,0.9-2.2,0.4c-0.2-0.1-0.3-0.2-0.4-0.4c-0.3-0.5-0.7-1-1.1-1.4
	C29.7,25.6,27.6,24.6,25.3,24.6L25.3,24.6z"/>
</svg>
